<svg xmlns="http://www.w3.org/2000/svg" viewBox="0 0 124.07 134.16"><defs><style>.cls-1{fill:#2ea8df;}.cls-2{fill:#fff;}.cls-3{fill:#ffe800;fill-rule:evenodd;}</style></defs><g id="Layer_2" data-name="Layer 2"><g id="Layer_1-2" data-name="Layer 1"><path class="cls-1" d="M124.07,49.45a31,31,0,0,0-31-31c-.88,0-1.75.05-2.61.12a31,31,0,0,0-56.81,0c-.86-.07-1.73-.12-2.61-.12a31,31,0,0,0-25.3,49,31,31,0,0,0,25.3,49c1,0,1.93,0,2.88-.14a31,31,0,0,0,56.27,0c1,.09,1.91.14,2.88.14a31,31,0,0,0,25.3-48.95A30.93,30.93,0,0,0,124.07,49.45Z"/><path class="cls-2" d="M26.53,34.57v8.17A12.88,12.88,0,1,0,33,53.89V28.13S26.53,28.56,26.53,34.57ZM20.09,60.33a6.44,6.44,0,1,1,6.44-6.44A6.44,6.44,0,0,1,20.09,60.33Z"/><path class="cls-2" d="M54.21,34.57v8.17a12.87,12.87,0,1,0,6.45,11.15V28.13S54.21,28.56,54.21,34.57ZM47.77,60.33a6.44,6.44,0,1,1,6.44-6.44A6.44,6.44,0,0,1,47.77,60.33Z"/><path class="cls-2" d="M82.71,43.24a12.88,12.88,0,1,0-7.23,23.53,12.91,12.91,0,0,0,6.44-1.72h0s2.12,1.72,6.44,1.72V53.89A12.84,12.84,0,0,0,82.71,43.24ZM75.48,60.33a6.44,6.44,0,1,1,6.44-6.44A6.44,6.44,0,0,1,75.48,60.33Z"/><path class="cls-2" d="M106.35,66.63H115L105.1,53.34,113.93,41a27.61,27.61,0,0,0-4.72.07A6.81,6.81,0,0,0,105.1,43l-5.52,6.9v0l-2.67,3.31V33.77c-.09-1.76-.93-5.56-6.45-5.56V66.85h6.45V63.27l3.85-4.67Z"/><path class="cls-2" d="M79.18,95.11h5.44v7.13H79.18Zm1.32,6h2.81V96.27H80.5ZM88.14,97H90v1.32H88.14v4.21H86.79V93h1.35Z"/><path class="cls-2" d="M93.55,95a2.84,2.84,0,0,1,1.2.25,3.19,3.19,0,0,1,1,.71,3.08,3.08,0,0,1,.66,1,3.68,3.68,0,0,1,0,2.56,3.08,3.08,0,0,1-.66,1,3.37,3.37,0,0,1-1,.71,3,3,0,0,1-2.38,0,3.24,3.24,0,0,1-1-.71,2.92,2.92,0,0,1-.65-1,3.53,3.53,0,0,1,0-2.56,2.92,2.92,0,0,1,.65-1,3.08,3.08,0,0,1,1-.71A2.81,2.81,0,0,1,93.55,95Zm0,5.18A1.89,1.89,0,0,0,95.21,99a1.93,1.93,0,0,0,0-1.49,2.12,2.12,0,0,0-.39-.61,1.92,1.92,0,0,0-.57-.39,1.69,1.69,0,0,0-.7-.15,1.65,1.65,0,0,0-.69.15,1.92,1.92,0,0,0-.57.39,1.77,1.77,0,0,0-.39.61,2.05,2.05,0,0,0,0,1.49,1.45,1.45,0,0,0,.39.59,1.69,1.69,0,0,0,.57.42A1.65,1.65,0,0,0,93.55,100.19Zm6.34,2.29H98.53V93h1.36Z"/><path class="cls-2" d="M110.44,98.57v1.21h-9.25V98.57h2.34V96.89h1.29v1.68h2V96.89h1.3v1.68Zm-4.63-4-3,2.85-1.06-.78,4-3.82,4.07,3.82-1.08.78Zm2.09,5.89h1.32v4.27h-6.8v-4.4h1.35v1.08h4.13Zm0,2.1h-4.12v1.14h4.12Z"/><path class="cls-2" d="M104.18,32.44h-1.92v-1h4.9v1h-1.91v5.71h-1.07Z"/><path class="cls-2" d="M107.86,31.47h1.57L111,36.71l1.53-5.24h1.58v6.68h-1V32.86l-1.62,5.29h-1l-1.63-5.29v5.29h-1Z"/><path class="cls-2" d="M69.13,72.25v38.43s4.31,0,6.41-2.29V78.66S76.28,72.25,69.13,72.25Z"/><path class="cls-2" d="M22.39,74.61A12.81,12.81,0,0,0,9.58,87.42V113s6.4-.43,6.4-6.4V98.51a12.81,12.81,0,1,0,6.41-23.9Zm0,19.22a6.41,6.41,0,1,1,6.4-6.41A6.41,6.41,0,0,1,22.39,93.83Z"/><path class="cls-2" d="M49.76,93.81a6.39,6.39,0,0,1-6.38-6.39,5.89,5.89,0,0,1,.16-1.4,6.37,6.37,0,0,1,12.27-.63,49.91,49.91,0,0,0,6.63.17,12.81,12.81,0,0,0-22.82-6,12.14,12.14,0,0,0-1,1.59A12.81,12.81,0,1,0,61.76,91.92,35.51,35.51,0,0,1,55,91.09,6.37,6.37,0,0,1,49.76,93.81Z"/><path class="cls-3" d="M62.81,91.47A34,34,0,0,1,51,89.39a26.78,26.78,0,0,1-11.79-8.25.62.62,0,0,1,.1-.87.59.59,0,0,1,.38-.14.65.65,0,0,1,.49.23v0h0c4.3,3.65,11.68,5.75,20.24,5.75,12.66,0,24.6-4.36,29.72-10.86a.83.83,0,0,1,.62-.36A.46.46,0,0,1,91,75a.62.62,0,0,1,.28.83,26.87,26.87,0,0,1-9.88,10.48,35,35,0,0,1-14.85,5C65.28,91.4,64,91.47,62.81,91.47Z"/></g></g></svg>