<?xml version="1.0" encoding="utf-8"?>
<!-- Generator: Adobe Illustrator 23.0.3, SVG Export Plug-In . SVG Version: 6.00 Build 0)  -->
<svg version="1.1" id="레이어_1" xmlns="http://www.w3.org/2000/svg" xmlns:xlink="http://www.w3.org/1999/xlink" x="0px"
	 y="0px" width="300px" height="112px" viewBox="0 0 300 112" style="enable-background:new 0 0 300 112;" xml:space="preserve">
<style type="text/css">
	.st0{opacity:0.9;fill:#001B71;}
	.st1{opacity:0.9;fill:#6F2277;}
	.st2{fill:#00ACD8;}
</style>
<g>
	<g>
		<path class="st0" d="M78.58,2.5h-1c-3.57,0-6.5,2.92-6.5,6.5v93c0,3.57,2.92,6.5,6.5,6.5h1c3.57,0,6.5-2.92,6.5-6.5V9
			C85.08,5.42,82.16,2.5,78.58,2.5z"/>
		<path class="st1" d="M84.47,7.04l-0.33-0.72c-1.53-3.3-5.47-4.74-8.77-3.21L41.99,18.59c-3.3,1.53-4.74,5.47-3.21,8.77l0.33,0.72
			c1.53,3.3,5.47,4.74,8.77,3.21l33.38-15.48C84.55,14.28,86,10.34,84.47,7.04z"/>
	</g>
	<g>
		<path class="st0" d="M254.83,53.02c-3.87,0-7,3.13-7,7v9.46c0,13.23-10.77,24-24,24c-13.23,0-24-10.77-24-24v-9.46
			c0-3.87-3.13-7-7-7s-7,3.13-7,7v9.46c0,20.9,17.1,38,38,38h0c20.9,0,38-17.1,38-38v-9.46C261.83,56.15,258.7,53.02,254.83,53.02z"
			/>
		<path class="st1" d="M254.83,66.98c-3.87,0-7-3.13-7-7V41.52c0-13.23-10.77-24-24-24c-13.23,0-24,10.77-24,24v18.46
			c0,3.87-3.13,7-7,7s-7-3.13-7-7V41.52c0-20.9,17.1-38,38-38h0c20.9,0,38,17.1,38,38v18.46C261.83,63.85,258.7,66.98,254.83,66.98z
			"/>
	</g>
	<g>
		<path class="st2" d="M107.5,35.86c0,0.01,0,0.03,0,0.04c0-0.02,0-0.04,0-0.06C107.5,35.85,107.5,35.86,107.5,35.86z"/>
		<path class="st1" d="M148,2.5h-7.13h-0.25h-7.13c-17.02,0-30.95,13.9-31,30.92c0,0.03,0,0.06,0,0.08v0c0,0.01,0,0.01,0,0.02
			c0,0.02,0,0.04,0,0.06c0.02,3.85,3.15,6.96,7,6.96c3.87,0,7-3.13,7-7c0-0.04-0.01-0.08-0.01-0.11h0.01
			c0.05-9.34,7.65-16.92,17-16.92h7.13h0.25H148c9.37,0,17,7.63,17,17c0,9.37-7.63,16-17,16h-7.38v0.01c-0.04,0-0.08-0.01-0.13-0.01
			c-3.87,0-7,3.13-7,7s3.13,7,7,7c0.04,0,0.08-0.01,0.13-0.01v0.01H148c17.05,0,31-12.95,31-30v0C179,16.45,165.05,2.5,148,2.5z"/>
		<path class="st0" d="M148,109.5h-7.13h-0.25h-7.13c-17.02,0-30.95-13.9-31-30.92c0-0.03,0-0.06,0-0.08v0c0-0.01,0-0.01,0-0.02
			c0-0.02,0-0.04,0-0.06c0.02-3.85,3.15-6.96,7-6.96c3.87,0,7,3.13,7,7c0,0.04-0.01,0.08-0.01,0.11h0.01
			c0.05,9.34,7.65,16.92,17,16.92h7.13h0.25H148c9.37,0,17-7.63,17-17c0-9.37-7.63-15-17-15h-7.38v-0.01
			c-0.04,0-0.08,0.01-0.13,0.01c-3.87,0-7-3.13-7-7s3.13-7,7-7c0.04,0,0.08,0.01,0.13,0.01V49.5H148c17.05,0,31,11.95,31,29v0
			C179,95.55,165.05,109.5,148,109.5z"/>
	</g>
</g>
</svg>
