<?xml version="1.0" encoding="utf-8"?>
<!-- Generator: Adobe Illustrator 23.0.6, SVG Export Plug-In . SVG Version: 6.00 Build 0)  -->
<svg version="1.1" id="레이어_1" xmlns="http://www.w3.org/2000/svg" xmlns:xlink="http://www.w3.org/1999/xlink" x="0px"
	 y="0px" width="300px" height="112px" viewBox="0 0 300 112" style="enable-background:new 0 0 300 112;" xml:space="preserve">
<style type="text/css">
	.st0{opacity:0.9;fill:#001B71;enable-background:new    ;}
	.st1{opacity:0.9;fill:#6F2277;enable-background:new    ;}
</style>
<g>
	<g>
		<path class="st0" d="M241.6,86L241.6,86c-3.9,0-7-3.1-7-7V33c0-3.8,3.1-7,7-7l0,0c3.8,0,7,3.1,7,7v46
			C248.6,82.9,245.6,86,241.6,86z"/>
		<path class="st1" d="M211.6,56L211.6,56c0-3.9,3.1-7,7-7h46c3.9,0,7,3.1,7,7l0,0c0,3.8-3.1,7-7,7h-46
			C214.9,63,211.6,59.9,211.6,56z"/>
	</g>
	<g>
		<g>
			<path class="st1" d="M29.1,54.6"/>
			<path class="st1" d="M29.3,86.3c-0.1-0.3-0.2-0.5-0.4-0.8C29,85.7,29.1,86,29.3,86.3z"/>
		</g>
		<path class="st1" d="M63.7,32.3c-15.4,0-28.6,9.2-34.6,22.3C29,54.7,29,54.8,28.9,55c-0.3,0.8-0.5,1.7-0.5,2.6c0,3.9,3.1,7,7,7
			c2.9,0,5.4-1.8,6.4-4.2l0,0c3.9-7.9,12.4-14.1,21.9-14.1c13.2,0,24,10.8,24,24s-10.8,24-24,24c-9.8,0-18.3-5.9-22-14.4l0,0
			c-1.1-2.3-3.5-3.9-6.3-3.9c-3.9,0-7,3.1-7,7c0,0.9,0.2,1.7,0.5,2.5c0.1,0.3,0.2,0.5,0.4,0.8c6,13,19.2,22,34.5,22
			c21,0,38-17,38-38S84.7,32.3,63.7,32.3z M42.1,59.6L42.1,59.6L42.1,59.6L42.1,59.6z M42,80.5C42,80.6,42,80.6,42,80.5
			C42,80.6,42,80.6,42,80.5z M42.2,81.2L42.2,81.2C42.2,81.3,42.2,81.3,42.2,81.2z M42.3,82c0,0.1,0,0.1,0,0.2
			C42.3,82.1,42.3,82,42.3,82z"/>
		<g>
			<g>
				<path class="st1" d="M29.1,54.6"/>
				<path class="st1" d="M35.3,64.6c3.9,0,7-3.1,7-7s-3.1-7-7-7c-2.8,0-5.2,1.6-6.3,4c-0.1,0.1-0.1,0.2-0.2,0.4
					c-0.3,0.8-0.5,1.7-0.5,2.6C28.4,61.4,31.6,64.6,35.3,64.6z"/>
			</g>
			<g>
				<path class="st1" d="M29.3,86.3c-0.1-0.3-0.2-0.5-0.4-0.8C29,85.7,29.1,86,29.3,86.3z"/>
				<path class="st0" d="M35.3,89.9c3.9,0,7-3.1,7-7s-3.1-7-7-7s-7,3.1-7,7c0,0.9,0.2,1.7,0.5,2.5c0.1,0.3,0.2,0.5,0.4,0.8
					C30.5,88.5,32.8,89.9,35.3,89.9z"/>
			</g>
		</g>
		<path class="st0" d="M35.3,64.5L35.3,64.5c-3.9,0-7-3.2-7-7l10-46.8c0-3.8,3.1-7,7-7l0,0c3.9,0,7,3.1,7,7l-10,46.8
			C42.3,61.4,39.3,64.5,35.3,64.5z"/>
		<path class="st1" d="M38.3,10.7L38.3,10.7c0-3.9,3.1-7,7-7h45.8c3.8,0,7,3.1,7,7l0,0c0,3.8-3.1,7-7,7H45.3
			C41.6,17.7,38.3,14.6,38.3,10.7z"/>
	</g>
	<g>
		<path class="st0" d="M186.9,51.3c-3.9,0-7,3.1-7,7v9.5c0,13.2-10.8,24-24,24s-24-10.8-24-24v-9.5c0-3.9-3.1-7-7-7s-7,3.1-7,7v9.5
			c0,20.9,17.1,38,38,38l0,0c20.9,0,38-17.1,38-38v-9.5C193.9,54.4,190.8,51.3,186.9,51.3z"/>
		<path class="st1" d="M186.9,65.2c-3.9,0-7-3.1-7-7V39.8c0-13.2-10.8-24-24-24s-24,10.8-24,24v18.5c0,3.9-3.1,7-7,7s-7-3.1-7-7
			V39.8c0-20.9,17.1-38,38-38l0,0c20.9,0,38,17.1,38,38v18.5C193.9,62.1,190.8,65.2,186.9,65.2z"/>
	</g>
</g>
</svg>
