<?xml version="1.0" encoding="utf-8"?>
<!-- Generator: Adobe Illustrator 23.0.3, SVG Export Plug-In . SVG Version: 6.00 Build 0)  -->
<svg version="1.1" id="레이어_1" xmlns="http://www.w3.org/2000/svg" xmlns:xlink="http://www.w3.org/1999/xlink" x="0px"
	 y="0px" width="300px" height="112px" viewBox="0 0 300 112" style="enable-background:new 0 0 300 112;" xml:space="preserve">
<style type="text/css">
	.st0{opacity:0.9;fill:#6F2277;enable-background:new    ;}
	.st1{opacity:0.9;fill:#001B71;enable-background:new    ;}
</style>
<g>
	<path class="st0" d="M156.02,1.87h-7.12h-0.25h-7.13c-5.18,0-10.07,1.29-14.37,3.56c-9.84,5.2-16.6,15.53-16.63,27.36
		c0,0.03,0,0.06,0,0.08l0,0c0,0.01,0,0.01,0,0.02c0,0.02,0,0.04,0,0.06c0.02,3.85,3.15,6.96,7,6.96c1.44,0,2.78-0.44,3.89-1.18
		c1.87-1.26,3.11-3.39,3.11-5.82c0-0.04-0.01-0.08-0.01-0.11h0.01c0.03-6.58,3.83-12.28,9.34-15.07c2.3-1.17,4.9-1.84,7.66-1.84
		h7.13h0.25h7.13c9.37,0,17,7.63,17,17c0,4.51-1.77,8.6-4.64,11.64l-0.71,0.71l-1.25,1.25l-16.87,16.84l-0.54,0.54l-32.7,32.7
		c-2.72,2.72-2.72,7.18,0,9.9s7.18,2.72,9.9,0l49.4-49.4c0,0,0.48-0.5,1.19-1.25c1.2-1.09,2.32-2.28,3.34-3.55
		c4.3-5.32,6.88-12.08,6.88-19.41l0,0C187.02,15.82,173.07,1.87,156.02,1.87z"/>
	<path class="st1" d="M183.17,108.46h-62c-3.85,0-7-3.15-7-7l0,0c0-3.85,3.15-7,7-7h62c3.85,0,7,3.15,7,7l0,0
		C190.17,105.31,187.02,108.46,183.17,108.46z"/>
</g>
</svg>
