<?xml version="1.0" encoding="utf-8"?>
<!-- Generator: Adobe Illustrator 23.0.3, SVG Export Plug-In . SVG Version: 6.00 Build 0)  -->
<svg version="1.1" id="레이어_1" xmlns="http://www.w3.org/2000/svg" xmlns:xlink="http://www.w3.org/1999/xlink" x="0px"
	 y="0px" width="300px" height="112px" viewBox="0 0 300 112" style="enable-background:new 0 0 300 112;" xml:space="preserve">
<style type="text/css">
	.st0{opacity:0.9;fill:#6F2277;}
	.st1{opacity:0.9;}
	.st2{fill:#001B71;}
	.st3{opacity:0.9;fill:#001B71;}
</style>
<g>
	<path class="st0" d="M186.21,49.33h-7.38v0.01c-0.04,0-0.08-0.01-0.13-0.01c-3.87,0-7,3.13-7,7s3.13,7,7,7
		c0.04,0,0.08-0.01,0.13-0.01v0.01h7.38c9.37,0,17,7.63,17,17c0,9.37-7.63,17-17,17h-7.38v0.01c-0.04,0-0.08-0.01-0.13-0.01
		c-3.87,0-7,3.13-7,7s3.13,7,7,7c0.04,0,0.08-0.01,0.13-0.01v0.01h7.38c17.05,0,31-13.95,31-31v0
		C217.21,63.28,203.26,49.33,186.21,49.33z"/>
	<g class="st1">
		<path class="st2" d="M33.13,4h-1c-3.57,0-6.5,2.92-6.5,6.5v93c0,3.57,2.92,6.5,6.5,6.5h1c3.57,0,6.5-2.92,6.5-6.5v-93
			C39.63,6.92,36.71,4,33.13,4z"/>
		<path class="st0" d="M39.02,8.54l-0.33-0.72c-1.53-3.3-5.47-4.74-8.77-3.21L4.16,16.3c-3.3,1.53-4.74,5.47-3.21,8.77l0.33,0.72
			c1.53,3.3,5.47,4.74,8.77,3.21l25.76-11.69C39.1,15.78,40.55,11.84,39.02,8.54z"/>
	</g>
	<path class="st3" d="M95.38,14c13.23,0,24,10.77,24,24s-10.77,24-24,24s-24-10.77-24-24S82.15,14,95.38,14 M95.38,0
		c-20.99,0-38,17.01-38,38s17.01,38,38,38s38-17.01,38-38S116.37,0,95.38,0L95.38,0z"/>
	<path class="st0" d="M119.42,37.5c0-3.58,2.92-6.5,6.5-6.5h1c3.58,0,6.5,2.92,6.5,6.5V74v0.5c0,0.17-0.01,0.33-0.03,0.49
		C132.86,95.52,116.07,112,95.42,112c-13.19,0-24.79-6.73-31.6-16.92c-0.16-0.22-0.31-0.45-0.44-0.69c-0.2-0.32-0.42-0.63-0.61-0.95
		l0.15-0.08v0c-0.13-0.36-0.23-0.73-0.3-1.11c-0.01-0.03-0.01-0.05-0.01-0.08c-0.06-0.38-0.1-0.76-0.1-1.16c0-3.87,3.13-7,7-7
		c0.26,0,0.51,0.02,0.76,0.04c0.08,0.01,0.15,0.02,0.23,0.03c0.17,0.02,0.34,0.05,0.51,0.09c0.08,0.02,0.17,0.04,0.25,0.06
		c0.16,0.04,0.31,0.08,0.47,0.13c0.08,0.03,0.16,0.06,0.24,0.09c0.15,0.06,0.3,0.12,0.45,0.18c0.07,0.03,0.14,0.07,0.21,0.1
		c0.15,0.08,0.3,0.16,0.45,0.24c0.06,0.04,0.12,0.07,0.18,0.11c0.15,0.1,0.3,0.2,0.45,0.31c0.04,0.03,0.09,0.07,0.13,0.1
		c0.16,0.12,0.31,0.26,0.46,0.39c0.03,0.02,0.05,0.05,0.08,0.07c0.17,0.16,0.34,0.34,0.49,0.52c0,0,0,0,0,0l0.07-0.04
		C79.11,93.36,86.73,98,95.42,98c12.61,0,22.98-9.78,23.92-22.16v0v-3.68V49.48L119.42,37.5z"/>
	<path class="st3" d="M261.63,14c13.23,0,24,10.77,24,24s-10.77,24-24,24c-13.23,0-24-10.77-24-24S248.4,14,261.63,14 M261.63,0
		c-20.99,0-38,17.01-38,38s17.01,38,38,38s38-17.01,38-38S282.62,0,261.63,0L261.63,0z"/>
	<path class="st0" d="M285.67,37.5c0-3.58,2.92-6.5,6.5-6.5h1c3.58,0,6.5,2.92,6.5,6.5V74v0.5c0,0.17-0.01,0.33-0.03,0.49
		C299.11,95.52,282.32,112,261.67,112c-13.19,0-24.79-6.73-31.6-16.92c-0.16-0.22-0.31-0.45-0.44-0.69
		c-0.2-0.32-0.42-0.63-0.61-0.95l0.15-0.08v0c-0.13-0.36-0.23-0.73-0.3-1.11c-0.01-0.03-0.01-0.05-0.01-0.08
		c-0.06-0.38-0.1-0.76-0.1-1.16c0-3.87,3.13-7,7-7c0.26,0,0.51,0.02,0.76,0.04c0.08,0.01,0.15,0.02,0.23,0.03
		c0.17,0.02,0.34,0.05,0.51,0.09c0.08,0.02,0.17,0.04,0.25,0.06c0.16,0.04,0.31,0.08,0.47,0.13c0.08,0.03,0.16,0.06,0.24,0.09
		c0.15,0.06,0.3,0.12,0.45,0.18c0.07,0.03,0.14,0.07,0.21,0.1c0.15,0.08,0.3,0.16,0.45,0.24c0.06,0.04,0.12,0.07,0.18,0.11
		c0.15,0.1,0.3,0.2,0.45,0.31c0.04,0.03,0.09,0.07,0.13,0.1c0.16,0.12,0.31,0.26,0.46,0.39c0.03,0.02,0.05,0.05,0.08,0.07
		c0.17,0.16,0.34,0.34,0.49,0.52c0,0,0,0,0,0l0.07-0.04C245.36,93.36,252.98,98,261.67,98c12.61,0,22.98-9.78,23.92-22.16v0v-3.68
		V49.48L285.67,37.5z"/>
	<path class="st0" d="M171.71,1.33h7.38v0.01c0.04,0,0.08-0.01,0.13-0.01c3.87,0,7,3.13,7,7s-3.13,7-7,7
		c-0.04,0-0.08-0.01-0.13-0.01v0.01h-7.38c-9.37,0-17,7.63-17,17c0,9.37,7.63,17,17,17h7.38v0.01c0.04,0,0.08-0.01,0.13-0.01
		c3.87,0,7,3.13,7,7s-3.13,7-7,7c-0.04,0-0.08-0.01-0.13-0.01v0.01h-7.38c-17.05,0-31-13.95-31-31v0
		C140.71,15.28,154.66,1.33,171.71,1.33z"/>
	<path class="st3" d="M171.71,49.33h7.38v0.01c0.04,0,0.08-0.01,0.13-0.01c3.87,0,7,3.13,7,7s-3.13,7-7,7
		c-0.04,0-0.08-0.01-0.13-0.01v0.01h-7.38c-9.37,0-17,7.63-17,17c0,9.37,7.63,17,17,17h7.38v0.01c0.04,0,0.08-0.01,0.13-0.01
		c3.87,0,7,3.13,7,7s-3.13,7-7,7c-0.04,0-0.08-0.01-0.13-0.01v0.01h-7.38c-17.05,0-31-13.95-31-31v0
		C140.71,63.28,154.66,49.33,171.71,49.33z"/>
	<path class="st3" d="M186.21,1.33h-7.38v0.01c-0.04,0-0.08-0.01-0.13-0.01c-3.87,0-7,3.13-7,7s3.13,7,7,7
		c0.04,0,0.08-0.01,0.13-0.01v0.01h7.38c9.37,0,17,7.63,17,17c0,9.37-7.63,17-17,17h-7.38v0.01c-0.04,0-0.08-0.01-0.13-0.01
		c-3.87,0-7,3.13-7,7s3.13,7,7,7c0.04,0,0.08-0.01,0.13-0.01v0.01h7.38c17.05,0,31-13.95,31-31v0
		C217.21,15.28,203.26,1.33,186.21,1.33z"/>
</g>
</svg>
