<?xml version="1.0" encoding="utf-8"?>
<!-- Generator: Adobe Illustrator 16.0.0, SVG Export Plug-In . SVG Version: 6.00 Build 0)  -->
<!DOCTYPE svg PUBLIC "-//W3C//DTD SVG 1.1//EN" "http://www.w3.org/Graphics/SVG/1.1/DTD/svg11.dtd">
<svg version="1.1" id="레이어_1" xmlns="http://www.w3.org/2000/svg" xmlns:xlink="http://www.w3.org/1999/xlink" x="0px"
	 y="0px" width="300px" height="112px" viewBox="-127.5 -33.5 300 112" enable-background="new -127.5 -33.5 300 112"
	 xml:space="preserve">
<g>
	<g>
		<path opacity="0.9" fill="#001B71" enable-background="new    " d="M-9.017-31.229h-1.026c-3.697,0-6.676,2.978-6.676,6.676
			v95.505c0,3.705,2.979,6.681,6.676,6.681h1.026c3.697,0,6.676-2.976,6.676-6.681v-95.505C-2.341-28.251-5.32-31.229-9.017-31.229z
			"/>
		<path opacity="0.9" fill="#6F2277" enable-background="new    " d="M-2.956-26.606l-0.312-0.719
			c-1.538-3.389-5.646-4.827-9.036-3.286l-34.299,15.916c-3.389,1.541-4.827,5.65-3.286,9.04l0.308,0.719
			c1.541,3.39,5.646,4.827,9.036,3.286L-6.242-17.57C-2.856-19.111-1.415-23.216-2.956-26.606z"/>
	</g>
</g>
<g>
	<path opacity="0.9" fill="#001B71" enable-background="new    " d="M59.792,70.443v-96.127c0-3.901,3.282-7.188,7.187-7.188h0.615
		c3.904,0,7.194,3.183,7.194,7.188v96.127c0,3.905-3.188,7.188-7.194,7.188h-0.615C63.074,77.632,59.792,74.349,59.792,70.443z"/>
	<path opacity="0.9" fill="#6F2277" enable-background="new    " d="M12.548,44.662l49.496-75.173c2.882-2.875,7.702-2.875,10.585,0
		l0,0c2.875,2.878,2.875,7.703,0,10.58l-49.5,75.171c-2.878,2.874-7.702,2.874-10.581,0l0,0
		C9.573,52.365,9.573,47.538,12.548,44.662z"/>
	<path opacity="0.9" fill="#001B71" enable-background="new    " d="M88.032,57.399H17.583c-4.005,0-7.191-3.283-7.191-7.188v-0.614
		c0-3.906,3.186-7.194,7.191-7.194h70.449c4.006,0,7.188,3.183,7.188,7.194v0.614C95.22,54.21,92.038,57.399,88.032,57.399z"/>
</g>
</svg>
