<?xml version="1.0" encoding="utf-8"?>
<!-- Generator: Adobe Illustrator 16.0.0, SVG Export Plug-In . SVG Version: 6.00 Build 0)  -->
<!DOCTYPE svg PUBLIC "-//W3C//DTD SVG 1.1//EN" "http://www.w3.org/Graphics/SVG/1.1/DTD/svg11.dtd">
<svg version="1.1" id="Layer_1" xmlns="http://www.w3.org/2000/svg" xmlns:xlink="http://www.w3.org/1999/xlink" x="0px" y="0px"
	 width="70px" height="65px" viewBox="-11.102 -9.929 70 65" enable-background="new -11.102 -9.929 70 65" xml:space="preserve">
<g>
	<g>
		<defs>
			<rect id="SVGID_1_" y="0" width="47.796" height="45.141"/>
		</defs>
		<clipPath id="SVGID_2_">
			<use xlink:href="#SVGID_1_"  overflow="visible"/>
		</clipPath>
		<path clip-path="url(#SVGID_2_)" fill="#FFFFFF" d="M29.771,0c-5.246,0-9.499,4.237-9.499,9.463c0,1.446,0.647,3.242,1.283,4.442
			c1.134,2.153,8.215,12.85,8.215,12.85s7.082-10.696,8.217-12.85c0.636-1.2,1.285-2.996,1.285-4.442
			C39.273,4.238,35.021,0,29.771,0 M29.728,12.832c-1.932,0-3.5-1.563-3.5-3.497c0-1.935,1.568-3.503,3.5-3.503
			c1.934,0,3.5,1.568,3.5,3.503C33.228,11.269,31.66,12.832,29.728,12.832"/>
	</g>
	<g>
		<defs>
			<rect id="SVGID_3_" y="0" width="47.796" height="45.141"/>
		</defs>
		<clipPath id="SVGID_4_">
			<use xlink:href="#SVGID_3_"  overflow="visible"/>
		</clipPath>
		<path clip-path="url(#SVGID_4_)" fill="#FFFFFF" d="M47.173,15.482l-6.506-3.145c-0.231,0.75-0.522,1.457-0.816,2.059l5.615,2.715
			L41.46,42.578l-13.879-4.601c-0.112-0.038-0.23-0.056-0.351-0.056c-0.121,0-0.242,0.02-0.358,0.058l-10.704,3.634L2.49,35.821
			l8.034-23.466l11.227,5.527c0,0-1.765-2.746-2.041-3.453l-9.336-4.61c-0.286-0.143-0.62-0.152-0.915-0.032
			c-0.295,0.122-0.524,0.363-0.627,0.665L0.06,36.079c-0.187,0.547,0.082,1.146,0.615,1.372l15.019,6.358
			c0.25,0.105,0.533,0.117,0.79,0.028l10.752-3.648l14.768,4.895c0.113,0.039,0.231,0.057,0.351,0.057
			c0.201,0,0.399-0.055,0.577-0.161c0.277-0.169,0.469-0.451,0.517-0.771l4.337-27.563C47.858,16.167,47.609,15.694,47.173,15.482"
			/>
	</g>
	<g>
		<defs>
			<rect id="SVGID_5_" y="0" width="47.796" height="45.141"/>
		</defs>
		<clipPath id="SVGID_6_">
			<use xlink:href="#SVGID_5_"  overflow="visible"/>
		</clipPath>
		<path clip-path="url(#SVGID_6_)" fill="#FFFFFF" d="M16.041,38.831l-4.25-1.808l7.51-9.068l8.953,2.155l-1.76,5.429L16.041,38.831
			z M23.778,21.036l-6.592-3.179l-2.36,7.086l13.666,3.29L23.778,21.036z M15.47,17.042l-3.527-1.683L5.355,34.29l4.624,1.965
			l7.281-8.791l-3.876-0.935c-0.255-0.061-0.475-0.228-0.603-0.457c-0.128-0.229-0.153-0.502-0.07-0.752L15.47,17.042z
			 M41.425,27.975L30.221,30.16l-1.778,5.483l10.754,3.614L41.425,27.975z M43.285,18.401l-4.527-2.082
			c-2.16,3.555-7.588,11.738-7.588,11.738l10.634-2.116L43.285,18.401z"/>
	</g>
</g>
</svg>
