<?xml version="1.0" encoding="utf-8"?>
<!-- Generator: Adobe Illustrator 16.0.0, SVG Export Plug-In . SVG Version: 6.00 Build 0)  -->
<!DOCTYPE svg PUBLIC "-//W3C//DTD SVG 1.1//EN" "http://www.w3.org/Graphics/SVG/1.1/DTD/svg11.dtd">
<svg version="1.1" id="Layer_1" xmlns="http://www.w3.org/2000/svg" xmlns:xlink="http://www.w3.org/1999/xlink" x="0px" y="0px"
	 width="25px" height="25px" viewBox="-17.937 31 25 25" enable-background="new -17.937 31 25 25" xml:space="preserve">
<g>
	<g>
		<defs>
			<rect id="SVGID_1_" x="-10.805" y="33.5" width="10.737" height="20"/>
		</defs>
		<clipPath id="SVGID_2_">
			<use xlink:href="#SVGID_1_"  overflow="visible"/>
		</clipPath>
		<path clip-path="url(#SVGID_2_)" fill="#8C8C8C" d="M-0.453,33.5H-3.04c-2.823,0-4.706,1.882-4.706,4.941v2.234h-2.589
			c-0.235,0-0.47,0.235-0.47,0.472v3.294c0,0.235,0.235,0.353,0.353,0.353h2.707v8.354c0,0.235,0.234,0.353,0.352,0.353h3.412
			c0.235,0,0.354-0.235,0.354-0.353v-8.354h3.058c0.234,0,0.353-0.234,0.353-0.353v-3.294c0-0.117,0-0.236-0.118-0.236
			c-0.117-0.117-0.235-0.117-0.235-0.117h-3.057v-2c0-0.94,0.234-1.412,1.411-1.412h1.765c0.235,0,0.354-0.235,0.354-0.353v-3.059
			C0.017,33.735-0.217,33.5-0.453,33.5"/>
	</g>
</g>
</svg>
