<?xml version="1.0" encoding="utf-8"?>
<!-- Generator: Adobe Illustrator 16.0.0, SVG Export Plug-In . SVG Version: 6.00 Build 0)  -->
<!DOCTYPE svg PUBLIC "-//W3C//DTD SVG 1.1//EN" "http://www.w3.org/Graphics/SVG/1.1/DTD/svg11.dtd">
<svg version="1.1" id="Layer_1" xmlns="http://www.w3.org/2000/svg" xmlns:xlink="http://www.w3.org/1999/xlink" x="0px" y="0px"
	 width="25px" height="25px" viewBox="755.73 753.125 25 25" enable-background="new 755.73 753.125 25 25" xml:space="preserve">
<g>
	<g>
		<defs>
			<rect id="SVGID_1_" x="758.23" y="755.658" width="20" height="19.932"/>
		</defs>
		<clipPath id="SVGID_2_">
			<use xlink:href="#SVGID_1_"  overflow="visible"/>
		</clipPath>
		<path clip-path="url(#SVGID_2_)" fill="#8C8C8C" d="M764.806,775.59h7.254c2.712,0,6.033-2.372,6.169-6.032v-5.153
			c0-0.61-0.542-1.221-1.017-1.221h-1.492c-0.61,0-1.152-0.542-1.152-1.084v-0.882c0-2.237-2.983-5.56-5.695-5.56l0,0h-4.474
			c-3.322,0-6.034,2.848-6.169,5.966v7.864C758.23,772.54,761.077,775.59,764.806,775.59 M764.603,760.811L764.603,760.811h3.864
			c1.22,0.068,1.424,2.305-0.068,2.373h-3.661C762.772,763.116,763.043,760.879,764.603,760.811 M764.331,768.065L764.331,768.065
			h7.525c1.491,0,1.491,2.101,0,2.305h-7.525C762.975,770.235,762.975,768.133,764.331,768.065"/>
	</g>
</g>
</svg>
