<?xml version="1.0" encoding="utf-8"?>
<!-- Generator: Adobe Illustrator 16.0.0, SVG Export Plug-In . SVG Version: 6.00 Build 0)  -->
<!DOCTYPE svg PUBLIC "-//W3C//DTD SVG 1.1//EN" "http://www.w3.org/Graphics/SVG/1.1/DTD/svg11.dtd">
<svg version="1.1" id="Layer_1" xmlns="http://www.w3.org/2000/svg" xmlns:xlink="http://www.w3.org/1999/xlink" x="0px" y="0px"
	 width="25px" height="25px" viewBox="-2.5 -5.5 25 25" enable-background="new -2.5 -5.5 25 25" xml:space="preserve">
<g>
	<g>
		<defs>
			<rect id="SVGID_1_" width="20" height="14"/>
		</defs>
		<clipPath id="SVGID_2_">
			<use xlink:href="#SVGID_1_"  overflow="visible"/>
		</clipPath>
		<path clip-path="url(#SVGID_2_)" fill="#8C8C8C" d="M19.8,3c0,0-0.2-1.4-0.8-2c-0.8-0.8-1.602-0.8-2-0.8C14.2,0,10,0,10,0
			S5.8,0,3,0.2c-0.4,0-1.2,0-2,0.8C0.4,1.6,0.2,3,0.2,3S0,4.6,0,6.2v1.5C0,9.4,0.2,11,0.2,11s0.2,1.4,0.8,2c0.8,0.8,1.8,0.8,2.2,0.9
			C4.8,14,10,14,10,14s4.2,0,7-0.2c0.398,0,1.2-0.1,2-0.8c0.6-0.6,0.8-2,0.8-2S20,9.4,20,7.8V6.2C20,4.6,19.8,3,19.8,3 M7.9,9.602V4
			l5.4,2.8L7.9,9.602z"/>
	</g>
</g>
</svg>
