<?xml version="1.0" encoding="utf-8"?>
<!-- Generator: Adobe Illustrator 16.0.0, SVG Export Plug-In . SVG Version: 6.00 Build 0)  -->
<!DOCTYPE svg PUBLIC "-//W3C//DTD SVG 1.1//EN" "http://www.w3.org/Graphics/SVG/1.1/DTD/svg11.dtd">
<svg version="1.1" id="Layer_1" xmlns="http://www.w3.org/2000/svg" xmlns:xlink="http://www.w3.org/1999/xlink" x="0px" y="0px"
	 width="31.957px" height="7.352px" viewBox="0 0 31.957 7.352" enable-background="new 0 0 31.957 7.352" xml:space="preserve">
<g>
	<defs>
		<rect id="SVGID_1_" y="0" width="31.957" height="7.351"/>
	</defs>
	<clipPath id="SVGID_2_">
		<use xlink:href="#SVGID_1_"  overflow="visible"/>
	</clipPath>
	<path clip-path="url(#SVGID_2_)" d="M23.576,4.393c0,1.434-0.637,2.156-1.896,2.156s-1.889-0.723-1.889-2.156
		c0-1.447,0.629-2.162,1.889-2.162S23.576,2.946,23.576,4.393 M20.854,4.393c0.008,0.812,0.283,1.221,0.818,1.221
		s0.803-0.428,0.809-1.25c0-0.811-0.266-1.211-0.801-1.211C21.124,3.152,20.854,3.568,20.854,4.393"/>
	<path clip-path="url(#SVGID_2_)" d="M8.04,4.393c0,1.434-0.638,2.156-1.896,2.156c-1.26,0-1.89-0.723-1.89-2.156
		c0-1.447,0.63-2.162,1.89-2.162C7.401,2.23,8.04,2.946,8.04,4.393 M5.316,4.393c0.008,0.812,0.281,1.221,0.817,1.221
		c0.533,0,0.804-0.428,0.81-1.25c0-0.811-0.267-1.211-0.8-1.211C5.591,3.152,5.316,3.568,5.316,4.393"/>
	<path clip-path="url(#SVGID_2_)" d="M2.779,3.678C2.71,3.203,2.445,3.069,1.987,3.069c-0.163,0-0.3,0.041-0.425,0.119
		c-0.118,0.08-0.214,0.179-0.285,0.314C1.208,3.631,1.154,3.774,1.121,3.93c-0.031,0.158-0.05,0.314-0.05,0.475
		c0,0.158,0.019,0.314,0.05,0.467C1.154,5.02,1.208,5.16,1.273,5.279c0.069,0.133,0.158,0.23,0.276,0.307
		C1.664,5.666,1.8,5.701,1.967,5.701c0.24,0,0.486-0.044,0.641-0.182c0.167-0.15,0.19-0.277,0.339-0.471
		c0.091-0.123,0.394-0.086,0.394-0.086h0.514c-0.068,0.545-0.267,0.86-0.601,1.154c-0.336,0.29-0.763,0.436-1.283,0.436
		c-0.284,0-0.551-0.051-0.798-0.154C0.929,6.291,0.72,6.143,0.543,5.957C0.367,5.771,0.232,5.549,0.138,5.293
		C0.045,5.032,0,4.752,0,4.445c0-0.32,0.043-0.616,0.131-0.891c0.087-0.27,0.218-0.51,0.388-0.709
		c0.173-0.203,0.385-0.354,0.633-0.467c0.25-0.107,0.527-0.164,0.844-0.164c0.492,0,0.916,0.139,1.263,0.406
		c0.352,0.274,0.54,0.555,0.574,1.057H2.779z"/>
	<path clip-path="url(#SVGID_2_)" d="M8.51,0.789h0.518c0.224,0,0.507,0.104,0.507,0.611v5.167H8.51V0.789z"/>
	<path clip-path="url(#SVGID_2_)" d="M10.047,0.789h0.518c0.224,0,0.508,0.104,0.508,0.611v5.167h-1.026V0.789z"/>
	<path clip-path="url(#SVGID_2_)" d="M15.52,0.785h0.527c0.232,0,0.525,0.104,0.525,0.59v0.597H15.52V0.785z"/>
	<path clip-path="url(#SVGID_2_)" d="M12.978,6.566c-0.472,0-0.878-0.172-1.107-0.404c-0.234-0.209-0.352-0.509-0.352-0.908
		c0-0.217,0.036-0.4,0.105-0.547c0.069-0.152,0.163-0.271,0.28-0.359c0.119-0.088,0.25-0.156,0.394-0.207
		c0.145-0.045,0.307-0.08,0.492-0.108c0.094-0.015,0.206-0.029,0.329-0.048c0.309-0.041,0.481-0.036,0.672-0.147
		c0.191-0.109,0.207-0.303,0.207-0.43c0-0.152-0.057-0.269-0.171-0.343c-0.117-0.071-0.28-0.11-0.491-0.11
		c-0.203,0-0.359,0.049-0.477,0.149c-0.113,0.093-0.179,0.152-0.199,0.363h-1.025c0.011-0.246,0.072-0.361,0.172-0.539
		c0.1-0.174,0.236-0.313,0.402-0.418c0.165-0.107,0.348-0.184,0.545-0.227c0.203-0.046,0.411-0.068,0.633-0.068
		c0.207,0,0.404,0.016,0.595,0.051c0.188,0.025,0.362,0.088,0.521,0.166c0.153,0.086,0.28,0.205,0.376,0.359
		c0.096,0.153,0.144,0.342,0.144,0.574v1.709C15.023,5.859,14.318,6.566,12.978,6.566 M13.998,4.383
		c-0.057,0.053-0.133,0.094-0.227,0.119c-0.091,0.026-0.218,0.053-0.377,0.078c-0.1,0.018-0.183,0.027-0.246,0.041
		c-0.191,0.037-0.338,0.105-0.449,0.189c-0.102,0.086-0.156,0.219-0.156,0.4c0,0.195,0.057,0.328,0.17,0.402
		c0.114,0.078,0.265,0.112,0.457,0.112c0.377,0,0.828-0.358,0.828-0.927V4.383z"/>
	<path clip-path="url(#SVGID_2_)" d="M15.52,1.766h1.053v1.051h0.014c0.124-0.2,0.293-0.348,0.513-0.448
		c0.218-0.101,0.448-0.154,0.695-0.154c0.198,0,0.391,0.043,0.579,0.129c0.187,0.086,0.359,0.219,0.51,0.391
		c0.152,0.175,0.274,0.394,0.362,0.669c0.089,0.27,0.136,0.58,0.136,0.934c0,0.352-0.047,0.67-0.136,0.939
		c-0.088,0.271-0.21,0.496-0.362,0.674c-0.15,0.174-0.323,0.301-0.51,0.387c-0.08,0.039-0.474,0.229-0.895,0.229
		c-1.462,0-1.959-0.875-1.959-1.477V1.766z M18.099,3.422c-0.152-0.248-0.376-0.371-0.667-0.371c-0.293,0-0.516,0.123-0.668,0.371
		c-0.154,0.246-0.229,0.557-0.229,0.926c0,0.363,0.074,0.67,0.229,0.914c0.152,0.248,0.375,0.373,0.668,0.373
		c0.291,0,0.515-0.125,0.667-0.373c0.151-0.244,0.229-0.551,0.229-0.914C18.327,3.979,18.25,3.668,18.099,3.422"/>
	<path clip-path="url(#SVGID_2_)" fill="#712177" d="M28.281,0c-2.027,0-3.678,1.645-3.678,3.678c0,2.031,1.65,3.674,3.678,3.674
		c2.033,0,3.676-1.643,3.676-3.674C31.957,1.645,30.314,0,28.281,0 M30.537,5.004c-0.439,0.555-1.018,0.781-1.018,0.781
		c-0.346,0.123-0.58-0.031-0.58-0.031c-0.467-0.295-1.197-1.32-1.197-1.32c-0.092-0.137-0.182,0-0.182,0l-1.047,1.115
		c-0.084,0.068-0.125,0.01-0.125,0.01l-0.355-0.254c-0.07-0.078-0.02-0.225-0.02-0.225l1.008-2.627
		c0.152-0.404-0.316-0.404-0.316-0.404c-0.242-0.09,0.043-0.246,0.043-0.246c0.492-0.145,1.178,0,1.178,0
		c0.396,0.058,0.232,0.48,0.232,0.48s-0.629,1.315-0.691,1.446c-0.061,0.13,0.063,0.08,0.063,0.08
		c1.891-2.127,2.375-2.239,2.375-2.239c0.328-0.148,0.432,0.088,0.432,0.088c0.158,0.535-0.164,0.772-0.227,0.854
		c-0.061,0.076-0.104,0.084-0.184,0.006c-0.08-0.077-0.131,0.013-0.131,0.013l-1.24,1.004c-0.122,0.069-0.063,0.194-0.063,0.194
		c0.432,0.67,1.09,1.16,1.09,1.16c0.355,0.227,0.6,0.014,0.6,0.014c0.17-0.146,0.283-0.125,0.283-0.125
		C30.641,4.854,30.537,5.004,30.537,5.004"/>
</g>
</svg>
