<?xml version="1.0" encoding="utf-8"?>
<!-- Generator: Adobe Illustrator 16.0.0, SVG Export Plug-In . SVG Version: 6.00 Build 0)  -->
<!DOCTYPE svg PUBLIC "-//W3C//DTD SVG 1.1//EN" "http://www.w3.org/Graphics/SVG/1.1/DTD/svg11.dtd">
<svg version="1.1" id="Layer_1" xmlns="http://www.w3.org/2000/svg" xmlns:xlink="http://www.w3.org/1999/xlink" x="0px" y="0px"
	 width="31.957px" height="7.352px" viewBox="0 0 31.957 7.352" enable-background="new 0 0 31.957 7.352" xml:space="preserve">
<g>
	<g>
		<defs>
			<rect id="SVGID_1_" y="0" width="31.957" height="7.351"/>
		</defs>
		<clipPath id="SVGID_2_">
			<use xlink:href="#SVGID_1_"  overflow="visible"/>
		</clipPath>
		<path clip-path="url(#SVGID_2_)" fill="#8C8C8C" d="M23.576,4.393c0,1.435-0.637,2.156-1.896,2.156
			c-1.259,0-1.889-0.723-1.889-2.156c0-1.447,0.629-2.162,1.889-2.162S23.576,2.946,23.576,4.393 M20.854,4.393
			c0.008,0.813,0.283,1.221,0.818,1.221s0.803-0.428,0.809-1.25c0-0.811-0.266-1.211-0.801-1.211
			C21.124,3.152,20.854,3.568,20.854,4.393"/>
	</g>
	<g>
		<defs>
			<rect id="SVGID_3_" y="0" width="31.957" height="7.351"/>
		</defs>
		<clipPath id="SVGID_4_">
			<use xlink:href="#SVGID_3_"  overflow="visible"/>
		</clipPath>
		<path clip-path="url(#SVGID_4_)" fill="#8C8C8C" d="M8.04,4.393c0,1.435-0.638,2.156-1.896,2.156c-1.26,0-1.89-0.723-1.89-2.156
			c0-1.447,0.63-2.162,1.89-2.162C7.401,2.23,8.04,2.946,8.04,4.393 M5.316,4.393c0.008,0.813,0.281,1.221,0.817,1.221
			c0.533,0,0.804-0.428,0.81-1.25c0-0.811-0.267-1.211-0.8-1.211C5.591,3.152,5.316,3.568,5.316,4.393"/>
	</g>
	<g>
		<defs>
			<rect id="SVGID_5_" y="0" width="31.957" height="7.351"/>
		</defs>
		<clipPath id="SVGID_6_">
			<use xlink:href="#SVGID_5_"  overflow="visible"/>
		</clipPath>
		<path clip-path="url(#SVGID_6_)" fill="#8C8C8C" d="M2.779,3.678C2.71,3.203,2.445,3.069,1.987,3.069
			c-0.163,0-0.3,0.041-0.425,0.119c-0.118,0.08-0.214,0.18-0.285,0.314C1.208,3.631,1.154,3.774,1.121,3.93
			c-0.031,0.158-0.05,0.314-0.05,0.475c0,0.158,0.019,0.314,0.05,0.468C1.154,5.02,1.208,5.16,1.273,5.279
			c0.069,0.134,0.158,0.23,0.276,0.308C1.664,5.666,1.8,5.701,1.967,5.701c0.24,0,0.486-0.044,0.641-0.183
			c0.167-0.149,0.19-0.276,0.339-0.471c0.091-0.123,0.394-0.086,0.394-0.086h0.514C3.787,5.507,3.588,5.822,3.254,6.116
			C2.918,6.406,2.491,6.552,1.971,6.552c-0.284,0-0.551-0.051-0.798-0.154c-0.244-0.106-0.453-0.255-0.63-0.44
			C0.367,5.771,0.232,5.549,0.138,5.293C0.045,5.032,0,4.752,0,4.445c0-0.319,0.043-0.615,0.131-0.891
			c0.087-0.27,0.218-0.51,0.388-0.709c0.173-0.203,0.385-0.354,0.633-0.467c0.25-0.107,0.527-0.164,0.844-0.164
			c0.492,0,0.916,0.139,1.263,0.406c0.352,0.273,0.54,0.555,0.574,1.057L2.779,3.678L2.779,3.678z"/>
	</g>
	<g>
		<defs>
			<rect id="SVGID_7_" y="0" width="31.957" height="7.351"/>
		</defs>
		<clipPath id="SVGID_8_">
			<use xlink:href="#SVGID_7_"  overflow="visible"/>
		</clipPath>
		<path clip-path="url(#SVGID_8_)" fill="#8C8C8C" d="M8.51,0.789h0.518c0.224,0,0.507,0.104,0.507,0.61v5.167H8.51V0.789z"/>
	</g>
	<g>
		<defs>
			<rect id="SVGID_9_" y="0" width="31.957" height="7.351"/>
		</defs>
		<clipPath id="SVGID_10_">
			<use xlink:href="#SVGID_9_"  overflow="visible"/>
		</clipPath>
		<path clip-path="url(#SVGID_10_)" fill="#8C8C8C" d="M10.047,0.789h0.518c0.224,0,0.508,0.104,0.508,0.61v5.167h-1.026V0.789z"/>
	</g>
	<g>
		<defs>
			<rect id="SVGID_11_" y="0" width="31.957" height="7.351"/>
		</defs>
		<clipPath id="SVGID_12_">
			<use xlink:href="#SVGID_11_"  overflow="visible"/>
		</clipPath>
		<path clip-path="url(#SVGID_12_)" fill="#8C8C8C" d="M15.52,0.785h0.527c0.232,0,0.525,0.104,0.525,0.59v0.597H15.52V0.785z"/>
	</g>
	<g>
		<defs>
			<rect id="SVGID_13_" y="0" width="31.957" height="7.351"/>
		</defs>
		<clipPath id="SVGID_14_">
			<use xlink:href="#SVGID_13_"  overflow="visible"/>
		</clipPath>
		<path clip-path="url(#SVGID_14_)" fill="#8C8C8C" d="M12.978,6.566c-0.472,0-0.878-0.172-1.107-0.403
			c-0.234-0.209-0.352-0.51-0.352-0.908c0-0.217,0.036-0.4,0.105-0.547c0.069-0.152,0.163-0.271,0.28-0.359
			c0.119-0.088,0.25-0.156,0.394-0.207c0.145-0.045,0.307-0.08,0.492-0.107c0.094-0.016,0.206-0.029,0.329-0.049
			c0.309-0.041,0.481-0.035,0.672-0.146c0.191-0.109,0.207-0.303,0.207-0.43c0-0.152-0.057-0.27-0.171-0.344
			c-0.117-0.07-0.28-0.109-0.491-0.109c-0.203,0-0.359,0.049-0.477,0.148c-0.113,0.093-0.179,0.152-0.199,0.363h-1.025
			c0.011-0.246,0.072-0.361,0.172-0.539c0.1-0.174,0.236-0.313,0.402-0.418c0.165-0.107,0.348-0.184,0.545-0.227
			c0.203-0.047,0.411-0.068,0.633-0.068c0.207,0,0.404,0.016,0.595,0.051c0.188,0.025,0.362,0.088,0.521,0.166
			c0.153,0.086,0.28,0.205,0.376,0.359c0.096,0.152,0.144,0.342,0.144,0.573v1.71C15.023,5.859,14.318,6.566,12.978,6.566
			 M13.998,4.383c-0.057,0.053-0.133,0.094-0.227,0.119c-0.091,0.025-0.218,0.053-0.377,0.078c-0.1,0.018-0.183,0.026-0.246,0.041
			c-0.191,0.037-0.338,0.104-0.449,0.188c-0.102,0.086-0.156,0.219-0.156,0.4c0,0.194,0.057,0.328,0.17,0.401
			c0.114,0.078,0.265,0.112,0.457,0.112c0.377,0,0.828-0.357,0.828-0.927V4.383z"/>
	</g>
	<g>
		<defs>
			<rect id="SVGID_15_" y="0" width="31.957" height="7.351"/>
		</defs>
		<clipPath id="SVGID_16_">
			<use xlink:href="#SVGID_15_"  overflow="visible"/>
		</clipPath>
		<path clip-path="url(#SVGID_16_)" fill="#8C8C8C" d="M15.52,1.766h1.052v1.051h0.015c0.124-0.199,0.293-0.348,0.513-0.447
			c0.219-0.102,0.448-0.154,0.695-0.154c0.198,0,0.391,0.043,0.579,0.129c0.187,0.086,0.358,0.219,0.51,0.391
			c0.152,0.176,0.274,0.395,0.362,0.669c0.089,0.271,0.136,0.58,0.136,0.935c0,0.352-0.047,0.67-0.136,0.938
			c-0.088,0.271-0.21,0.496-0.362,0.675c-0.149,0.174-0.323,0.301-0.51,0.387c-0.08,0.039-0.474,0.229-0.896,0.229
			c-1.461,0-1.958-0.875-1.958-1.477V1.766z M18.1,3.422c-0.152-0.248-0.377-0.371-0.668-0.371c-0.293,0-0.516,0.123-0.668,0.371
			c-0.154,0.246-0.229,0.557-0.229,0.926c0,0.363,0.074,0.67,0.229,0.914c0.152,0.248,0.375,0.373,0.668,0.373
			c0.291,0,0.516-0.125,0.668-0.373c0.15-0.244,0.229-0.551,0.229-0.914C18.327,3.979,18.25,3.668,18.1,3.422"/>
	</g>
	<g>
		<defs>
			<rect id="SVGID_17_" y="0" width="31.957" height="7.351"/>
		</defs>
		<clipPath id="SVGID_18_">
			<use xlink:href="#SVGID_17_"  overflow="visible"/>
		</clipPath>
		<path clip-path="url(#SVGID_18_)" fill="#8C8C8C" d="M28.281,0c-2.027,0-3.678,1.645-3.678,3.678c0,2.031,1.649,3.674,3.678,3.674
			c2.033,0,3.676-1.643,3.676-3.674C31.957,1.645,30.314,0,28.281,0 M30.537,5.004c-0.439,0.555-1.018,0.781-1.018,0.781
			c-0.347,0.123-0.58-0.031-0.58-0.031c-0.467-0.295-1.197-1.32-1.197-1.32c-0.092-0.137-0.182,0-0.182,0l-1.047,1.115
			c-0.084,0.068-0.125,0.01-0.125,0.01l-0.355-0.254c-0.07-0.078-0.02-0.225-0.02-0.225l1.008-2.627
			c0.151-0.404-0.316-0.404-0.316-0.404c-0.242-0.09,0.043-0.246,0.043-0.246c0.492-0.145,1.178,0,1.178,0
			c0.396,0.058,0.232,0.48,0.232,0.48s-0.629,1.314-0.691,1.445c-0.061,0.13,0.063,0.08,0.063,0.08
			c1.892-2.127,2.375-2.239,2.375-2.239c0.328-0.147,0.433,0.089,0.433,0.089c0.158,0.534-0.164,0.771-0.228,0.854
			c-0.061,0.076-0.104,0.084-0.184,0.006c-0.08-0.077-0.131,0.013-0.131,0.013l-1.24,1.005c-0.121,0.068-0.063,0.193-0.063,0.193
			c0.432,0.67,1.09,1.16,1.09,1.16c0.355,0.228,0.6,0.014,0.6,0.014c0.17-0.146,0.283-0.125,0.283-0.125
			C30.641,4.854,30.537,5.004,30.537,5.004"/>
	</g>
</g>
</svg>
