<?xml version="1.0" encoding="utf-8"?>
<!-- Generator: Adobe Illustrator 16.0.0, SVG Export Plug-In . SVG Version: 6.00 Build 0)  -->
<!DOCTYPE svg PUBLIC "-//W3C//DTD SVG 1.1//EN" "http://www.w3.org/Graphics/SVG/1.1/DTD/svg11.dtd">
<svg version="1.1" id="Layer_1" xmlns="http://www.w3.org/2000/svg" xmlns:xlink="http://www.w3.org/1999/xlink" x="0px" y="0px"
	 width="35.059px" height="7.209px" viewBox="0 0 35.059 7.209" enable-background="new 0 0 35.059 7.209" xml:space="preserve">
<g>
	<g>
		<defs>
			<rect id="SVGID_1_" x="0" width="35.059" height="7.209"/>
		</defs>
		<clipPath id="SVGID_2_">
			<use xlink:href="#SVGID_1_"  overflow="visible"/>
		</clipPath>
		<path clip-path="url(#SVGID_2_)" fill="#8C8C8C" d="M0,4.832h0.506V1.711H0v-0.92h2.764c1.19,0,1.756,0.443,1.756,1.217
			c0,0.595-0.162,0.885-0.703,1.099C4.333,3.25,4.764,3.625,4.764,4.313c0,1.002-0.566,1.441-1.949,1.441H0V4.832z M1.991,2.797
			h0.435c0.383,0,0.489-0.207,0.489-0.549c0-0.328-0.202-0.52-0.474-0.52h-0.45V2.797z M2.563,4.832c0.304,0,0.58-0.228,0.58-0.612
			c0-0.361-0.207-0.622-0.601-0.622H1.991v1.234H2.563z"/>
	</g>
	<g>
		<defs>
			<rect id="SVGID_3_" x="0" width="35.059" height="7.209"/>
		</defs>
		<clipPath id="SVGID_4_">
			<use xlink:href="#SVGID_3_"  overflow="visible"/>
		</clipPath>
		<path clip-path="url(#SVGID_4_)" fill="#8C8C8C" d="M4.898,5.756V4.821h0.246V3.129H4.902V2.207h1.166l0.113,0.317
			c0.153-0.317,0.653-0.317,1.192-0.317v0.922C6.72,3.129,6.5,3.467,6.5,4.094v0.729h0.285v0.934L4.898,5.756L4.898,5.756z"/>
	</g>
	<g>
		<defs>
			<rect id="SVGID_5_" x="0" width="35.059" height="7.209"/>
		</defs>
		<clipPath id="SVGID_6_">
			<use xlink:href="#SVGID_5_"  overflow="visible"/>
		</clipPath>
		<polygon clip-path="url(#SVGID_6_)" fill="#8C8C8C" points="7.646,5.756 7.646,4.821 7.876,4.821 7.876,3.129 7.646,3.129 
			7.646,2.207 9.243,2.207 9.243,4.821 9.52,4.821 9.52,5.756 		"/>
	</g>
	<g>
		<defs>
			<rect id="SVGID_7_" x="0" width="35.059" height="7.209"/>
		</defs>
		<clipPath id="SVGID_8_">
			<use xlink:href="#SVGID_7_"  overflow="visible"/>
		</clipPath>
		<path clip-path="url(#SVGID_8_)" fill="#8C8C8C" d="M10.135,5.796c0.164,0.145,0.703,0.454,1.246,0.454
			c0.646,0,0.834-0.364,0.834-0.664V5.345c-0.101,0.127-0.379,0.393-0.838,0.393c-1.236,0-1.724-0.881-1.724-1.779
			c0-1.098,0.62-1.823,1.798-1.823c0.32,0,0.618,0.151,0.764,0.289l0.141-0.216h1.639v0.929h-0.359v2.122
			c0,1.178-0.731,1.947-2.238,1.951c-0.791-0.004-1.368-0.377-1.643-0.623L10.135,5.796z M11.629,4.815
			c0.416,0,0.576-0.348,0.576-0.907c0-0.483-0.216-0.848-0.584-0.848c-0.384,0-0.576,0.344-0.576,0.883
			C11.045,4.369,11.25,4.815,11.629,4.815"/>
	</g>
	<g>
		<defs>
			<rect id="SVGID_9_" x="0" width="35.059" height="7.209"/>
		</defs>
		<clipPath id="SVGID_10_">
			<use xlink:href="#SVGID_9_"  overflow="visible"/>
		</clipPath>
		<path clip-path="url(#SVGID_10_)" fill="#8C8C8C" d="M14.133,5.756V4.821h0.231V1.719h-0.231V0.791h1.666v1.651
			c0.082-0.131,0.604-0.364,1.127-0.364c1.111,0,1.256,0.815,1.256,1.563v1.18h0.263v0.935h-1.563V3.893
			c0-0.242-0.119-0.66-0.543-0.66c-0.363,0-0.539,0.357-0.539,0.66v0.928h0.242v0.935H14.133z"/>
	</g>
	<g>
		<defs>
			<rect id="SVGID_11_" x="0" width="35.059" height="7.209"/>
		</defs>
		<clipPath id="SVGID_12_">
			<use xlink:href="#SVGID_11_"  overflow="visible"/>
		</clipPath>
		<path clip-path="url(#SVGID_12_)" fill="#8C8C8C" d="M18.904,1.863V0.792h1.318v1.072h0.611v0.924h-0.611v1.605
			c0,0.198-0.051,0.567,0.23,0.567c0.092,0,0.313,0.021,0.45-0.034v0.893c-0.215,0.084-0.7,0.066-0.864,0.066
			c-1.08,0-1.113-0.582-1.136-1.492V2.787h-0.317V1.863H18.904z"/>
	</g>
	<g>
		<defs>
			<rect id="SVGID_13_" x="0" width="35.059" height="7.209"/>
		</defs>
		<clipPath id="SVGID_14_">
			<use xlink:href="#SVGID_13_"  overflow="visible"/>
		</clipPath>
		<path clip-path="url(#SVGID_14_)" fill="#8C8C8C" d="M22.224,4.832h0.507V1.711h-0.507v-0.92h2.768
			c1.188,0,1.754,0.443,1.754,1.217c0,0.595-0.162,0.885-0.699,1.099c0.518,0.143,0.945,0.518,0.945,1.208
			c0,1.002-0.568,1.44-1.951,1.44h-2.815L22.224,4.832L22.224,4.832z M24.217,2.797h0.436c0.38,0,0.488-0.207,0.488-0.549
			c0-0.328-0.203-0.52-0.475-0.52h-0.449V2.797z M24.787,4.832c0.301,0,0.584-0.228,0.584-0.612c0-0.361-0.211-0.622-0.604-0.622
			h-0.551v1.234H24.787z"/>
	</g>
	<g>
		<defs>
			<rect id="SVGID_15_" x="0" width="35.059" height="7.209"/>
		</defs>
		<clipPath id="SVGID_16_">
			<use xlink:href="#SVGID_15_"  overflow="visible"/>
		</clipPath>
		<path clip-path="url(#SVGID_16_)" fill="#8C8C8C" d="M30.869,5.265c-0.529,0.455-1.103,0.621-1.849,0.621
			c-0.891,0-1.894-0.564-1.894-1.929c0-1.16,0.845-1.855,1.927-1.855c0.832,0,1.422,0.3,1.717,1.035
			c0.121,0.308,0.162,0.793,0.013,1.201h-2.328c0.045,0.188,0.209,0.58,0.809,0.58c0.242,0,0.617-0.021,1.004-0.34L30.869,5.265z
			 M29.773,3.631c-0.018-0.168-0.178-0.605-0.635-0.605c-0.438,0-0.646,0.429-0.662,0.605H29.773z"/>
	</g>
	<g>
		<defs>
			<rect id="SVGID_17_" x="0" width="35.059" height="7.209"/>
		</defs>
		<clipPath id="SVGID_18_">
			<use xlink:href="#SVGID_17_"  overflow="visible"/>
		</clipPath>
		<polygon clip-path="url(#SVGID_18_)" fill="#8C8C8C" points="34.701,4.821 34.701,0.431 33.109,0.431 33.109,1.345 33.34,1.345 
			33.34,4.821 32.609,4.821 32.609,0.431 31.018,0.431 31.018,1.345 31.248,1.345 31.248,4.821 31.008,4.821 31.008,5.756 
			35.059,5.756 35.059,4.821 		"/>
	</g>
	<g>
		<defs>
			<rect id="SVGID_19_" x="0" width="35.059" height="7.209"/>
		</defs>
		<clipPath id="SVGID_20_">
			<use xlink:href="#SVGID_19_"  overflow="visible"/>
		</clipPath>
		<path clip-path="url(#SVGID_20_)" fill="#8C8C8C" d="M9.375,0.791c0,0.439-0.355,0.791-0.791,0.791
			c-0.439,0-0.795-0.352-0.795-0.791C7.789,0.359,8.145,0,8.584,0C9.02,0,9.375,0.359,9.375,0.791"/>
	</g>
</g>
</svg>
