<?xml version="1.0" encoding="utf-8"?>
<!-- Generator: Adobe Illustrator 16.0.0, SVG Export Plug-In . SVG Version: 6.00 Build 0)  -->
<!DOCTYPE svg PUBLIC "-//W3C//DTD SVG 1.1//EN" "http://www.w3.org/Graphics/SVG/1.1/DTD/svg11.dtd">
<svg version="1.1" id="Layer_1" xmlns="http://www.w3.org/2000/svg" xmlns:xlink="http://www.w3.org/1999/xlink" x="0px" y="0px"
	 width="25px" height="25px" viewBox="1237.5 1182 25 25" enable-background="new 1237.5 1182 25 25" xml:space="preserve">
<g>
	<g>
		<defs>
			<rect id="SVGID_1_" x="1240" y="1184.946" width="20" height="19.112"/>
		</defs>
		<clipPath id="SVGID_2_">
			<use xlink:href="#SVGID_1_"  overflow="visible"/>
		</clipPath>
		<path clip-path="url(#SVGID_2_)" fill="#8C8C8C" d="M1240,1187.166c0-0.644,0.225-1.174,0.676-1.593
			c0.45-0.418,1.036-0.627,1.757-0.627c0.708,0,1.28,0.206,1.718,0.618c0.451,0.425,0.676,0.979,0.676,1.661
			c0,0.618-0.219,1.132-0.656,1.544c-0.45,0.425-1.042,0.637-1.776,0.637h-0.019c-0.708,0-1.281-0.212-1.718-0.637
			S1240,1187.809,1240,1187.166 M1240.251,1191.162h4.286v12.896h-4.286V1191.162z M1246.911,1204.057h4.286v-7.2
			c0-0.451,0.051-0.798,0.154-1.043c0.18-0.438,0.453-0.808,0.82-1.11s0.827-0.454,1.38-0.454c1.441,0,2.163,0.972,2.163,2.915
			v6.892H1260v-7.394c0-1.905-0.45-3.35-1.352-4.334c-0.9-0.984-2.091-1.477-3.571-1.477c-1.66,0-2.954,0.714-3.88,2.143v0.039
			h-0.02l0.02-0.039v-1.834h-4.286c0.026,0.412,0.039,1.692,0.039,3.842S1246.937,1200.171,1246.911,1204.057"/>
	</g>
</g>
</svg>
