<?xml version="1.0" encoding="utf-8"?>
<!-- Generator: Adobe Illustrator 16.0.0, SVG Export Plug-In . SVG Version: 6.00 Build 0)  -->
<!DOCTYPE svg PUBLIC "-//W3C//DTD SVG 1.1//EN" "http://www.w3.org/Graphics/SVG/1.1/DTD/svg11.dtd">
<svg version="1.1" id="Layer_1" xmlns="http://www.w3.org/2000/svg" xmlns:xlink="http://www.w3.org/1999/xlink" x="0px" y="0px"
	 width="25px" height="25px" viewBox="-3 -4.905 25 25" enable-background="new -3 -4.905 25 25" xml:space="preserve">
<g>
	<g>
		<defs>
			<rect id="SVGID_1_" x="-0.344" y="-0.399" width="20" height="15.988"/>
		</defs>
		<clipPath id="SVGID_2_">
			<use xlink:href="#SVGID_1_"  overflow="visible"/>
		</clipPath>
		<path clip-path="url(#SVGID_2_)" fill="#8C8C8C" d="M5.972,15.588c7.578,0,11.684-6.104,11.684-11.471V3.591
			c0.844-0.526,1.475-1.264,2.001-2.105c-0.737,0.314-1.579,0.526-2.316,0.631c0.842-0.526,1.474-1.264,1.79-2.21
			c-0.843,0.419-1.684,0.841-2.632,0.946c-1.579-1.579-4.105-1.684-5.789-0.211C9.656,1.59,9.235,3.064,9.551,4.537
			C6.288,4.326,3.13,2.853,1.13,0.326c-1.052,1.895-0.526,4.21,1.263,5.37c-0.632,0-1.263-0.212-1.895-0.526
			c0,1.894,1.368,3.576,3.263,3.999C3.13,9.38,2.498,9.38,1.867,9.274c0.526,1.687,2.105,2.739,3.79,2.843
			c-1.474,1.16-3.263,1.687-5.052,1.687c-0.316,0-0.632,0-0.948-0.107C1.551,14.958,3.762,15.588,5.972,15.588"/>
	</g>
</g>
</svg>
