<?xml version="1.0" encoding="utf-8"?>
<!-- Generator: Adobe Illustrator 16.0.0, SVG Export Plug-In . SVG Version: 6.00 Build 0)  -->
<!DOCTYPE svg PUBLIC "-//W3C//DTD SVG 1.1//EN" "http://www.w3.org/Graphics/SVG/1.1/DTD/svg11.dtd">
<svg version="1.1" id="Layer_1" xmlns="http://www.w3.org/2000/svg" xmlns:xlink="http://www.w3.org/1999/xlink" x="0px" y="0px"
	 width="36px" height="35.783px" viewBox="0 0 36 35.783" enable-background="new 0 0 36 35.783" xml:space="preserve">
<g>
	<defs>
		<rect id="SVGID_1_" width="36" height="35.783"/>
	</defs>
	<clipPath id="SVGID_2_">
		<use xlink:href="#SVGID_1_"  overflow="visible"/>
	</clipPath>
	<path clip-path="url(#SVGID_2_)" fill="#8C8C8C" d="M28.692,8.424h-7.516V5.489C21.177,2.463,18.714,0,15.688,0H5.489
		C2.463,0,0,2.463,0,5.489V11.1c0,2.489,1.664,4.595,3.937,5.266l-0.071,1.808c-0.021,0.534,0.244,1.039,0.694,1.325
		c0.245,0.156,0.525,0.235,0.805,0.235c0.236,0,0.474-0.057,0.69-0.169l0.485-0.251v4.584c0,4.029,3.277,7.307,7.306,7.307h5.833
		l8.504,4.41c0.217,0.112,0.454,0.168,0.69,0.168c0.28,0,0.56-0.078,0.805-0.233c0.45-0.287,0.715-0.792,0.694-1.326l-0.126-3.185
		C33.532,30.325,36,27.395,36,23.898V15.73C36,11.701,32.722,8.424,28.692,8.424 M33,23.898c0,2.375-1.933,4.307-4.308,4.307
		c-0.408,0-0.799,0.166-1.081,0.461c-0.283,0.294-0.434,0.69-0.418,1.099l0.079,1.999l-6.537-3.391
		c-0.213-0.11-0.45-0.168-0.69-0.168h-6.199c-2.375,0-4.306-1.932-4.306-4.307V15.73c0-2.374,1.931-4.306,4.306-4.306h14.846
		c2.375,0,4.308,1.932,4.308,4.306V23.898z M5.489,13.589C4.116,13.589,3,12.472,3,11.1V5.489C3,4.117,4.116,3,5.489,3h10.198
		c1.372,0,2.489,1.117,2.489,2.489v2.935h-4.331c-3.509,0-6.446,2.487-7.146,5.791c-0.041-0.057-0.081-0.114-0.13-0.166
		C6.288,13.756,5.897,13.589,5.489,13.589"/>
	<path clip-path="url(#SVGID_2_)" fill="#8C8C8C" d="M27.604,17.931c-0.918,0-1.663,0.745-1.663,1.664
		c0,0.918,0.745,1.663,1.663,1.663c0.919,0,1.664-0.745,1.664-1.663C29.268,18.676,28.522,17.931,27.604,17.931"/>
	<path clip-path="url(#SVGID_2_)" fill="#8C8C8C" d="M21.666,17.931c-0.918,0-1.663,0.745-1.663,1.664
		c0,0.918,0.745,1.663,1.663,1.663c0.919,0,1.664-0.745,1.664-1.663C23.33,18.676,22.585,17.931,21.666,17.931"/>
	<path clip-path="url(#SVGID_2_)" fill="#8C8C8C" d="M15.729,17.931c-0.919,0-1.663,0.745-1.663,1.664
		c0,0.918,0.744,1.663,1.663,1.663c0.918,0,1.663-0.745,1.663-1.663C17.392,18.676,16.647,17.931,15.729,17.931"/>
</g>
</svg>
