<?xml version="1.0" encoding="utf-8"?>
<!-- Generator: Adobe Illustrator 16.0.0, SVG Export Plug-In . SVG Version: 6.00 Build 0)  -->
<!DOCTYPE svg PUBLIC "-//W3C//DTD SVG 1.1//EN" "http://www.w3.org/Graphics/SVG/1.1/DTD/svg11.dtd">
<svg version="1.1" id="Layer_1" xmlns="http://www.w3.org/2000/svg" xmlns:xlink="http://www.w3.org/1999/xlink" x="0px" y="0px"
	 width="36px" height="36px" viewBox="0 0 36 36" enable-background="new 0 0 36 36" xml:space="preserve">
<g>
	<defs>
		<rect id="SVGID_1_" width="36" height="36"/>
	</defs>
	<clipPath id="SVGID_2_">
		<use xlink:href="#SVGID_1_"  overflow="visible"/>
	</clipPath>
	<path clip-path="url(#SVGID_2_)" d="M11.414,2.674c1.966,0,3.566,1.6,3.566,3.566v6.372c0,1.967-1.6,3.566-3.566,3.566h-0.827
		c-1.966,0-3.566-1.599-3.566-3.566V6.24c0-1.966,1.6-3.566,3.566-3.566H11.414 M11.414,0h-0.827c-3.432,0-6.24,2.808-6.24,6.24
		v6.372c0,3.432,2.808,6.241,6.24,6.241h0.827c3.432,0,6.24-2.809,6.24-6.241V6.24C17.654,2.808,14.846,0,11.414,0"/>
	<path clip-path="url(#SVGID_2_)" d="M27.5,7.24c1.455,0,2.639,1.184,2.639,2.639v4.583c0,1.456-1.184,2.64-2.639,2.64
		s-2.639-1.184-2.639-2.64V9.879C24.861,8.424,26.045,7.24,27.5,7.24 M27.5,4.379L27.5,4.379c-3.025,0-5.5,2.475-5.5,5.5v4.583
		c0,3.025,2.475,5.5,5.5,5.5s5.5-2.475,5.5-5.5V9.879C33,6.854,30.525,4.379,27.5,4.379"/>
	<path clip-path="url(#SVGID_2_)" d="M3,36v-5.5C3,28.019,5.019,26,7.5,26h7c2.481,0,4.5,2.019,4.5,4.5V36h3v-5.5
		c0-4.136-3.364-7.5-7.5-7.5h-7C3.364,23,0,26.364,0,30.5V36H3z"/>
	<path clip-path="url(#SVGID_2_)" d="M24,26h4.5c2.481,0,4.5,2.019,4.5,4.5V33h3v-2.5c0-4.136-3.364-7.5-7.5-7.5h-7"/>
</g>
</svg>
