<?xml version="1.0" encoding="utf-8"?>
<!-- Generator: Adobe Illustrator 16.0.0, SVG Export Plug-In . SVG Version: 6.00 Build 0)  -->
<!DOCTYPE svg PUBLIC "-//W3C//DTD SVG 1.1//EN" "http://www.w3.org/Graphics/SVG/1.1/DTD/svg11.dtd">
<svg version="1.1" id="Layer_1" xmlns="http://www.w3.org/2000/svg" xmlns:xlink="http://www.w3.org/1999/xlink" x="0px" y="0px"
	 width="36px" height="36px" viewBox="0 0 36 36" enable-background="new 0 0 36 36" xml:space="preserve">
<g>
	<defs>
		<rect id="SVGID_1_" width="36" height="36"/>
	</defs>
	<clipPath id="SVGID_2_">
		<use xlink:href="#SVGID_1_"  overflow="visible"/>
	</clipPath>
	<path clip-path="url(#SVGID_2_)" fill="#00ACD7" d="M24,9V5c0-2.761-2.238-5-5-5h-2c-2.761,0-5,2.239-5,5v4H0v5v22h36V14V9H24z
		 M15,5c0-1.103,0.897-2,2-2h2c1.103,0,2,0.897,2,2v4h-6V5z M33,33H3V19.74C4.134,20.532,5.512,21,7,21v2h3v-2h16v2h3v-2
		c1.488,0,2.865-0.468,4-1.26V33z M33,14c0,2.206-1.794,4-4,4v-3h-3v3H10v-3H7v3c-2.206,0-4-1.794-4-4v-2h9h12h9V14z"/>
</g>
</svg>
