<?xml version="1.0" encoding="utf-8"?>
<!-- Generator: Adobe Illustrator 16.0.0, SVG Export Plug-In . SVG Version: 6.00 Build 0)  -->
<!DOCTYPE svg PUBLIC "-//W3C//DTD SVG 1.1//EN" "http://www.w3.org/Graphics/SVG/1.1/DTD/svg11.dtd">
<svg version="1.1" id="Layer_1" xmlns="http://www.w3.org/2000/svg" xmlns:xlink="http://www.w3.org/1999/xlink" x="0px" y="0px"
	 width="36px" height="36px" viewBox="0 0 36 36" enable-background="new 0 0 36 36" xml:space="preserve">
<g>
	<defs>
		<rect id="SVGID_1_" x="8.5" y="10.405" width="19" height="15.19"/>
	</defs>
	<clipPath id="SVGID_2_">
		<use xlink:href="#SVGID_1_"  overflow="visible"/>
	</clipPath>
	<path clip-path="url(#SVGID_2_)" fill="#C0C0C0" d="M14.5,25.594c7.2,0,11.1-5.799,11.1-10.898v-0.5c0.801-0.5,1.4-1.201,1.9-2
		c-0.7,0.299-1.5,0.5-2.2,0.6c0.8-0.5,1.4-1.201,1.7-2.1c-0.8,0.399-1.6,0.799-2.5,0.899c-1.5-1.5-3.9-1.6-5.5-0.2
		c-1,0.9-1.4,2.3-1.1,3.7c-3.1-0.2-6.1-1.6-8-4c-1,1.8-0.5,4,1.2,5.101c-0.6,0-1.2-0.201-1.8-0.5c0,1.799,1.3,3.398,3.1,3.799
		c-0.6,0.201-1.2,0.201-1.8,0.1c0.5,1.602,2,2.602,3.6,2.701c-1.4,1.101-3.1,1.601-4.8,1.601c-0.3,0-0.6,0-0.9-0.101
		C10.3,24.995,12.4,25.594,14.5,25.594"/>
</g>
</svg>
