<?xml version="1.0" encoding="utf-8"?>
<!-- Generator: Adobe Illustrator 16.0.0, SVG Export Plug-In . SVG Version: 6.00 Build 0)  -->
<!DOCTYPE svg PUBLIC "-//W3C//DTD SVG 1.1//EN" "http://www.w3.org/Graphics/SVG/1.1/DTD/svg11.dtd">
<svg version="1.1" id="Layer_1" xmlns="http://www.w3.org/2000/svg" xmlns:xlink="http://www.w3.org/1999/xlink" x="0px" y="0px"
	 width="36px" height="36px" viewBox="0 0 36 36" enable-background="new 0 0 36 36" xml:space="preserve">
<g>
	<defs>
		<rect id="SVGID_1_" x="8" y="11" width="20" height="14"/>
	</defs>
	<clipPath id="SVGID_2_">
		<use xlink:href="#SVGID_1_"  overflow="visible"/>
	</clipPath>
	<path clip-path="url(#SVGID_2_)" fill="#702277" d="M27.8,14c0,0-0.2-1.4-0.8-2c-0.8-0.8-1.601-0.8-2-0.8C22.2,11,18,11,18,11
		s-4.2,0-7,0.2c-0.4,0-1.2,0-2,0.8c-0.6,0.6-0.8,2-0.8,2S8,15.6,8,17.2v1.5C8,20.4,8.2,22,8.2,22s0.2,1.4,0.8,2
		c0.8,0.8,1.8,0.8,2.2,0.9C12.8,25,18,25,18,25s4.2,0,7-0.2c0.399,0,1.2-0.1,2-0.8c0.6-0.6,0.8-2,0.8-2s0.2-1.6,0.2-3.2v-1.6
		C28,15.6,27.8,14,27.8,14 M15.9,20.601V15l5.4,2.8L15.9,20.601z"/>
</g>
</svg>
