<?xml version="1.0" encoding="utf-8"?>
<!-- Generator: Adobe Illustrator 16.0.0, SVG Export Plug-In . SVG Version: 6.00 Build 0)  -->
<!DOCTYPE svg PUBLIC "-//W3C//DTD SVG 1.1//EN" "http://www.w3.org/Graphics/SVG/1.1/DTD/svg11.dtd">
<svg version="1.1" id="Layer_1" xmlns="http://www.w3.org/2000/svg" xmlns:xlink="http://www.w3.org/1999/xlink" x="0px" y="0px"
	 width="36px" height="36px" viewBox="0 0 36 36" enable-background="new 0 0 36 36" xml:space="preserve">
<path fill="#8C8C8C" d="M15.485,21.596h5.028V33h-5.028V21.596z M6.5,25.665v-1.239v-4.229v-4.501L18,4.23l11.5,11.465v4.501v4.229
	v1.239V33h-5.987V18.597H12.486V33H6.5V25.665z M18,0l-3,2.992l-8.5,8.473l-3,2.991L0,17.946l2.121,2.114L3.5,18.686v2.749V36h0.01
	H6.5h5.986h11.027H29.5h2.574H32.5V21.435v-2.749l1.379,1.374L36,17.946l-3.5-3.49l-3-2.991L21,2.992L18,0z"/>
</svg>
