<?xml version="1.0" encoding="utf-8"?>
<!-- Generator: Adobe Illustrator 16.0.0, SVG Export Plug-In . SVG Version: 6.00 Build 0)  -->
<!DOCTYPE svg PUBLIC "-//W3C//DTD SVG 1.1//EN" "http://www.w3.org/Graphics/SVG/1.1/DTD/svg11.dtd">
<svg version="1.1" id="Layer_1" xmlns="http://www.w3.org/2000/svg" xmlns:xlink="http://www.w3.org/1999/xlink" x="0px" y="0px"
	 width="36px" height="36px" viewBox="0 0 36 36" enable-background="new 0 0 36 36" xml:space="preserve">
<g>
	<defs>
		<rect id="SVGID_1_" x="7.5" y="7.362" width="21" height="21.277"/>
	</defs>
	<clipPath id="SVGID_2_">
		<use xlink:href="#SVGID_1_"  overflow="visible"/>
	</clipPath>
	<path clip-path="url(#SVGID_2_)" fill="#702277" d="M7.551,17.501c0.221-0.166,0.526-0.125,0.914,0.125V7.361h18.992v10.265
		c0.222-0.167,0.457-0.25,0.706-0.25c0.25,0,0.36,0.097,0.333,0.291c-0.083,0.249-0.229,0.513-0.437,0.79s-0.416,0.512-0.623,0.707
		c-0.208,0.193-0.513,0.408-0.915,0.645c-0.401,0.234-0.699,0.408-0.894,0.519c-0.193,0.111-0.519,0.277-0.976,0.499
		c-0.458,0.222-0.728,0.346-0.811,0.374c0.359,1.164,0.484,2.313,0.374,3.449c-0.139,1.08-0.534,1.994-1.185,2.742
		c-0.651,0.748-1.503,1.137-2.556,1.164c-0.804,0-1.44-0.333-1.912-0.997c-0.138-0.222-0.208-0.485-0.208-0.79v-4.197
		c-0.082,0-0.221-0.034-0.415-0.104c-0.194-0.069-0.305-0.104-0.333-0.104v4.487c0,0.499-0.222,0.922-0.665,1.268
		c-0.443,0.347-0.928,0.52-1.455,0.52c-1.025,0-1.87-0.388-2.535-1.163c-0.665-0.776-1.066-1.704-1.205-2.784
		c-0.111-1.164,0.014-2.3,0.374-3.408c-1.69-0.748-3.145-1.731-4.364-2.951C7.51,17.889,7.44,17.612,7.551,17.501 M9.546,18.333
		c0.111,0.056,0.284,0.146,0.52,0.27c0.235,0.125,0.422,0.215,0.561,0.271l14.877-0.166c0.416-0.194,0.692-0.333,0.831-0.416V8.484
		H9.546V18.333z M12.58,16.213c0-0.693,0.249-1.289,0.748-1.787c0.499-0.499,1.094-0.748,1.787-0.748
		c0.693,0,1.282,0.25,1.767,0.748c0.485,0.499,0.727,1.094,0.727,1.787c0,0.692-0.242,1.281-0.727,1.766s-1.074,0.728-1.767,0.728
		c-0.692,0-1.288-0.243-1.787-0.728C12.829,17.495,12.58,16.906,12.58,16.213 M18.522,16.213c0-0.693,0.249-1.289,0.748-1.787
		c0.498-0.499,1.094-0.748,1.786-0.748c0.693,0,1.282,0.25,1.767,0.748c0.485,0.499,0.728,1.094,0.728,1.787
		c0,0.692-0.242,1.281-0.728,1.766c-0.484,0.485-1.073,0.728-1.767,0.728c-0.692,0-1.288-0.243-1.786-0.728
		C18.771,17.495,18.522,16.906,18.522,16.213"/>
</g>
</svg>
