<?xml version="1.0" encoding="utf-8"?>
<!-- Generator: Adobe Illustrator 16.0.0, SVG Export Plug-In . SVG Version: 6.00 Build 0)  -->
<!DOCTYPE svg PUBLIC "-//W3C//DTD SVG 1.1//EN" "http://www.w3.org/Graphics/SVG/1.1/DTD/svg11.dtd">
<svg version="1.1" id="Layer_1" xmlns="http://www.w3.org/2000/svg" xmlns:xlink="http://www.w3.org/1999/xlink" x="0px" y="0px"
	 width="36px" height="36px" viewBox="0 0 36 36" enable-background="new 0 0 36 36" xml:space="preserve">
<g>
	<defs>
		<rect id="SVGID_1_" width="36" height="36"/>
	</defs>
	<clipPath id="SVGID_2_">
		<use xlink:href="#SVGID_1_"  overflow="visible"/>
	</clipPath>
	<path clip-path="url(#SVGID_2_)" fill="#702277" d="M28.5,0h-21H0v7.978c0,3.584,2.916,6.5,6.5,6.5h1V21c0,3.584,2.916,6.5,6.5,6.5
		v5.937H7.5V36H14h8h6.5v-2.563H22V27.5c3.584,0,6.5-2.916,6.5-6.5v-6.522h1c3.584,0,6.5-2.916,6.5-6.5V0H28.5z M7.5,11.478h-1
		c-1.93,0-3.5-1.57-3.5-3.5V3h4.5V11.478z M19,33.437h-2V27.5h2V33.437z M25.5,11.478v3V21c0,1.93-1.57,3.5-3.5,3.5h-8
		c-1.93,0-3.5-1.57-3.5-3.5v-6.522v-3V3h15V11.478z M33,7.978c0,1.93-1.57,3.5-3.5,3.5h-1V3H33V7.978z"/>
	<rect x="16.5" y="10" clip-path="url(#SVGID_2_)" fill="#702277" width="3" height="8"/>
</g>
</svg>
