<?xml version="1.0" encoding="utf-8"?>
<!-- Generator: Adobe Illustrator 16.0.0, SVG Export Plug-In . SVG Version: 6.00 Build 0)  -->
<!DOCTYPE svg PUBLIC "-//W3C//DTD SVG 1.1//EN" "http://www.w3.org/Graphics/SVG/1.1/DTD/svg11.dtd">
<svg version="1.1" id="Layer_1" xmlns="http://www.w3.org/2000/svg" xmlns:xlink="http://www.w3.org/1999/xlink" x="0px" y="0px"
	 width="36px" height="36px" viewBox="0 0 36 36" enable-background="new 0 0 36 36" xml:space="preserve">
<g>
	<defs>
		<rect id="SVGID_1_" x="13.437" y="9.5" width="9.127" height="17"/>
	</defs>
	<clipPath id="SVGID_2_">
		<use xlink:href="#SVGID_1_"  overflow="visible"/>
	</clipPath>
	<path clip-path="url(#SVGID_2_)" fill="#702277" d="M22.236,9.5h-2.199c-2.4,0-4,1.6-4,4.2v1.9h-2.2c-0.2,0-0.4,0.2-0.4,0.4v2.8
		c0,0.2,0.2,0.3,0.3,0.3h2.3V26.2c0,0.2,0.2,0.3,0.3,0.3h2.899c0.2,0,0.301-0.2,0.301-0.3V19.1h2.599c0.201,0,0.301-0.199,0.301-0.3
		V16c0-0.1,0-0.2-0.1-0.2c-0.101-0.1-0.201-0.1-0.201-0.1h-2.599V14c0-0.8,0.199-1.2,1.199-1.2h1.5c0.2,0,0.301-0.2,0.301-0.3V9.9
		C22.636,9.7,22.437,9.5,22.236,9.5"/>
</g>
</svg>
