<?xml version="1.0" encoding="utf-8"?>
<!-- Generator: Adobe Illustrator 16.0.0, SVG Export Plug-In . SVG Version: 6.00 Build 0)  -->
<!DOCTYPE svg PUBLIC "-//W3C//DTD SVG 1.1//EN" "http://www.w3.org/Graphics/SVG/1.1/DTD/svg11.dtd">
<svg version="1.1" id="Layer_1" xmlns="http://www.w3.org/2000/svg" xmlns:xlink="http://www.w3.org/1999/xlink" x="0px" y="0px"
	 width="36px" height="36px" viewBox="0 0 36 36" enable-background="new 0 0 36 36" xml:space="preserve">
<g>
	<defs>
		<rect id="SVGID_1_" x="9.5" y="9.879" width="17" height="16.246"/>
	</defs>
	<clipPath id="SVGID_2_">
		<use xlink:href="#SVGID_1_"  overflow="visible"/>
	</clipPath>
	<path clip-path="url(#SVGID_2_)" fill="#C0C0C0" d="M9.5,11.767c0-0.547,0.191-0.999,0.574-1.354s0.881-0.533,1.493-0.533
		c0.602,0,1.089,0.175,1.46,0.525c0.383,0.361,0.575,0.832,0.575,1.411c0,0.525-0.186,0.963-0.558,1.313
		c-0.383,0.361-0.886,0.542-1.51,0.542h-0.016c-0.602,0-1.089-0.181-1.46-0.542C9.686,12.768,9.5,12.313,9.5,11.767 M9.713,15.163
		h3.643v10.962H9.713V15.163z M15.375,26.125h3.643v-6.121c0-0.383,0.044-0.679,0.131-0.886c0.153-0.372,0.386-0.687,0.697-0.944
		c0.313-0.257,0.703-0.386,1.174-0.386c1.225,0,1.838,0.826,1.838,2.478v5.858H26.5V19.84c0-1.619-0.383-2.847-1.148-3.684
		S23.573,14.9,22.315,14.9c-1.411,0-2.511,0.607-3.298,1.822v0.033h-0.017l0.017-0.033v-1.559h-3.643
		c0.022,0.35,0.033,1.438,0.033,3.266S15.396,22.82,15.375,26.125"/>
</g>
</svg>
