<?xml version="1.0" encoding="utf-8"?>
<!-- Generator: Adobe Illustrator 16.0.0, SVG Export Plug-In . SVG Version: 6.00 Build 0)  -->
<!DOCTYPE svg PUBLIC "-//W3C//DTD SVG 1.1//EN" "http://www.w3.org/Graphics/SVG/1.1/DTD/svg11.dtd">
<svg version="1.1" id="Layer_1" xmlns="http://www.w3.org/2000/svg" xmlns:xlink="http://www.w3.org/1999/xlink" x="0px" y="0px"
	 width="36px" height="36px" viewBox="0 0 36 36" enable-background="new 0 0 36 36" xml:space="preserve">
<g>
	<defs>
		<rect id="SVGID_1_" x="9.471" y="9.5" width="17.058" height="17"/>
	</defs>
	<clipPath id="SVGID_2_">
		<use xlink:href="#SVGID_1_"  overflow="visible"/>
	</clipPath>
	<path clip-path="url(#SVGID_2_)" fill="#702277" d="M15.08,26.5h6.187c2.313,0,5.146-2.024,5.263-5.146v-4.395
		c0-0.521-0.463-1.041-0.868-1.041h-1.271c-0.521,0-0.983-0.462-0.983-0.925v-0.751c0-1.908-2.544-4.742-4.857-4.742l0,0h-3.816
		c-2.833,0-5.146,2.429-5.262,5.088v6.708C9.471,23.897,11.899,26.5,15.08,26.5 M14.906,13.894L14.906,13.894h3.296
		c1.041,0.058,1.215,1.966-0.058,2.024h-3.123C13.345,15.86,13.576,13.952,14.906,13.894 M14.675,20.081L14.675,20.081h6.418
		c1.271,0,1.271,1.793,0,1.966h-6.418C13.518,21.932,13.518,20.139,14.675,20.081"/>
</g>
</svg>
