<svg xmlns="http://www.w3.org/2000/svg" viewBox="0 0 50 18"><defs><style>.cls-1{fill:#fff;}</style></defs><title>Asset 64</title><g id="Layer_2" data-name="Layer 2"><g id="레이어_1" data-name="레이어 1"><path class="cls-1" d="M42.74,9.57h-1v2h1c.95,0,1.5-.32,1.5-1S43.7,9.57,42.74,9.57Z"/><path class="cls-1" d="M43.93,8.2c0-.61-.45-.84-1.3-.84h-.85v1.7h.82C43.54,9.06,43.93,8.73,43.93,8.2Z"/><path class="cls-1" d="M45,0H5A5,5,0,0,0,0,5v8a5,5,0,0,0,5,5H45a5,5,0,0,0,5-5V5A5,5,0,0,0,45,0ZM15.65,9.37c0,.15,0,.3-.05.44a4.43,4.43,0,0,1-.68,1.81,4.76,4.76,0,0,1-1.54,1.52,4.63,4.63,0,0,1-1.06.49.24.24,0,0,1-.35-.25V12.14a1.31,1.31,0,0,0-.17-.73l-.14-.19a5.67,5.67,0,0,0,.57-.1,2.08,2.08,0,0,0,1.25-.76,2.33,2.33,0,0,0,.37-1,2.82,2.82,0,0,0,0-.87,1.62,1.62,0,0,0-.39-.77.16.16,0,0,1,0-.17,1.55,1.55,0,0,0-.07-1.14.08.08,0,0,0-.07,0,.83.83,0,0,0-.49.09c-.25.11-.48.24-.73.36a.23.23,0,0,1-.14,0,5,5,0,0,0-2.3,0,.19.19,0,0,1-.15,0,3.32,3.32,0,0,0-1-.44h0c-.22,0-.26,0-.33.2a1.55,1.55,0,0,0,0,1,.14.14,0,0,1,0,.09,2,2,0,0,0-.45,1.55,2.62,2.62,0,0,0,.28,1A1.73,1.73,0,0,0,9,11a8.08,8.08,0,0,0,.88.22h0a1,1,0,0,0-.27.55.16.16,0,0,1-.05.08,1.14,1.14,0,0,1-1,0,1,1,0,0,1-.35-.37A1,1,0,0,0,7.53,11a1.08,1.08,0,0,0-.31,0c-.07,0-.09.06,0,.11a.53.53,0,0,0,.15.15,1.26,1.26,0,0,1,.52.62,1.14,1.14,0,0,0,.26.42,1.14,1.14,0,0,0,.73.26h.69s0,0,0,0c0,.25,0,.5,0,.75s-.15.35-.39.27a4.8,4.8,0,0,1-2.77-2.34,4.54,4.54,0,0,1-.5-2.7A4.5,4.5,0,0,1,7.07,6,4.71,4.71,0,0,1,9.7,4.46a4.88,4.88,0,0,1,4.14,1,4.66,4.66,0,0,1,1.79,3.29.44.44,0,0,1,0,.1Zm6.57,2.17A2.54,2.54,0,0,1,18,9.45a2.48,2.48,0,0,1,2.52-2.71,2.16,2.16,0,0,1,1.59.65l-.38.43a1.57,1.57,0,0,0-1.19-.5c-1.11,0-1.83.81-1.83,2.11s.66,2.14,1.84,2.14a1.56,1.56,0,0,0,1-.3V9.9H20.42V9.35h1.8Zm2,.52h-.7V6.84h.7Zm5-4.66H27.57v4.66h-.7V7.4H25.2V6.84h4Zm4.94,4.66h-.69V9.6H30.91v2.46h-.7V6.84h.7V9h2.57V6.84h.69ZM39.61,9.9c0,1.68-.86,2.25-2,2.25s-2-.57-2-2.25V6.84h.7V9.92c0,1.26.56,1.65,1.28,1.65s1.31-.39,1.31-1.65V6.84h.67Zm3.23,2.16H41.08V6.84h1.64c1.12,0,1.89.36,1.89,1.28a1.14,1.14,0,0,1-.81,1.13v0a1.23,1.23,0,0,1,1.12,1.25C44.92,11.55,44.07,12.06,42.84,12.06Z"/></g></g></svg>