<svg xmlns="http://www.w3.org/2000/svg" viewBox="0 0 414.9 59.26"><defs><style>.cls-1{fill:#fff;}</style></defs><title>Asset 57</title><g id="Layer_2" data-name="Layer 2"><g id="레이어_1" data-name="레이어 1"><path class="cls-1" d="M34.18,25.58l-3.25,2.14c-.91.6-1.71,1.09-2.38,1.48L9.61,39.68V55.79a5.61,5.61,0,0,1-.32,2c-.22.58-.88.87-2,.87H2.38a2,2,0,0,1-1.62-.72A2.4,2.4,0,0,1,.14,56.3L0,3.11A2.25,2.25,0,0,1,.69,1.52,2.24,2.24,0,0,1,2.38.79H26.67A14.42,14.42,0,0,1,33.32,2.2a12,12,0,0,1,6.54,8.6,15.35,15.35,0,0,1,.07,5.53A15.06,15.06,0,0,1,38,21.54,12.32,12.32,0,0,1,34.18,25.58ZM9.61,10.41V28.84q2.75-1.45,5.86-3.15t5.85-3.36c.43-.24,1-.58,1.7-1s1.4-.89,2.09-1.37S26.45,19,27,18.54a5.94,5.94,0,0,0,1.16-1.12,5.81,5.81,0,0,0,.86-4.63,2.75,2.75,0,0,0-2.89-2.38Z"/><path class="cls-1" d="M96.41,35.27a22.31,22.31,0,0,1-2,9.36A24.29,24.29,0,0,1,89,52.25a26.25,26.25,0,0,1-27.61,5.13,26.15,26.15,0,0,1-8.06-5.13,23.91,23.91,0,0,1-5.45-7.62,22.31,22.31,0,0,1-2-9.36V23.92a22.18,22.18,0,0,1,2-9.36A24.37,24.37,0,0,1,53.37,7,26.26,26.26,0,0,1,71.26,0a25.63,25.63,0,0,1,9.79,1.88,26.05,26.05,0,0,1,8,5.09,23.39,23.39,0,0,1,5.39,7.59,22.75,22.75,0,0,1,2,9.36ZM86.65,23.92a13.54,13.54,0,0,0-1.23-5.71,15.43,15.43,0,0,0-3.32-4.7A15.66,15.66,0,0,0,71.19,9.18a15.57,15.57,0,0,0-6,1.19,16.43,16.43,0,0,0-5,3.18,14.85,14.85,0,0,0-3.32,4.66,13.54,13.54,0,0,0-1.23,5.71V35.27A13.5,13.5,0,0,0,56.88,41a15.1,15.1,0,0,0,3.32,4.69,15.36,15.36,0,0,0,5,3.18,15.73,15.73,0,0,0,6,1.16A15.73,15.73,0,0,0,82.1,45.67,15.26,15.26,0,0,0,85.42,41a13.5,13.5,0,0,0,1.23-5.71Z"/><path class="cls-1" d="M132.33.79a11,11,0,0,1,4.66,1,12.94,12.94,0,0,1,3.86,2.67,13.21,13.21,0,0,1,2.68,3.9,11.38,11.38,0,0,1,1,4.7,10.9,10.9,0,0,1-2,6.76,20.91,20.91,0,0,1-5.09,4.73c.77,2,1.52,4,2.24,5.93s1.44,3.9,2.17,5.92q1.73,4.77,3.54,9.58t3.68,9.65a2,2,0,0,1-.1,2.2,2.74,2.74,0,0,1-2.14.76h-5.49a2,2,0,0,1-1.59-.54,4.72,4.72,0,0,1-.72-1.27L128.64,29.27c-2.51,1.3-4.91,2.58-7.23,3.83S116.64,35.65,114,37V55.79a5.61,5.61,0,0,1-.32,2c-.22.58-.88.87-2,.87H106.6a2,2,0,0,1-1.63-.72,2.39,2.39,0,0,1-.61-1.59l-.15-53.19a2.25,2.25,0,0,1,.69-1.59,2.26,2.26,0,0,1,1.7-.73ZM114,10.41V26.16l3.36-1.66c1.28-.63,2.63-1.31,4-2.06l4.23-2.24c1.39-.75,2.67-1.47,3.83-2.17s2.15-1.35,3-2a6.4,6.4,0,0,0,1.62-1.48v.07a2.81,2.81,0,0,0-.36-3.47,2.73,2.73,0,0,0-2-.79Z"/><path class="cls-1" d="M178.51,10.12V55.79a5.39,5.39,0,0,1-.33,2c-.22.58-.88.87-2,.87h-5c-1.11,0-1.77-.29-2-.87a5.39,5.39,0,0,1-.33-2V10.12h-14a3.49,3.49,0,0,1-2.38-.54A3.53,3.53,0,0,1,152,7.3V3.61a5.46,5.46,0,0,1,.33-1.95c.22-.58.88-.87,2-.87h38.52c1.1,0,1.78.29,2,.87a5.06,5.06,0,0,1,.36,2V7.3a3.79,3.79,0,0,1-.47,2.28c-.31.36-1.1.54-2.35.54Z"/><path class="cls-1" d="M203.37,58.61a2.23,2.23,0,0,1-1.56-.65,2.21,2.21,0,0,1-.68-1.66L201,3.11a2.1,2.1,0,0,1,.73-1.66,2.3,2.3,0,0,1,1.58-.66h33.54c1.11,0,1.78.29,2,.87a5.06,5.06,0,0,1,.36,2v4c0,1.3-.15,2.09-.47,2.38a4.12,4.12,0,0,1-2.42.44H210.67V24h24.14a2,2,0,0,1,2.31,2.32v5a2,2,0,0,1-2.31,2.32H210.67V55.72a6.6,6.6,0,0,1-.29,2c-.2.6-.89.9-2.1.9Z"/><path class="cls-1" d="M295.44,35.27a22.31,22.31,0,0,1-2,9.36A24.13,24.13,0,0,1,288,52.25a26.25,26.25,0,0,1-27.61,5.13,26.1,26.1,0,0,1-8.05-5.13,23.94,23.94,0,0,1-5.46-7.62,22.31,22.31,0,0,1-2-9.36V23.92a22,22,0,0,1,2-9.36A24.18,24.18,0,0,1,252.4,7a26.26,26.26,0,0,1,17.89-7,25.63,25.63,0,0,1,9.79,1.88,25.93,25.93,0,0,1,8,5.09,23.39,23.39,0,0,1,5.39,7.59,22.75,22.75,0,0,1,1.95,9.36Zm-9.76-11.35a13.68,13.68,0,0,0-1.22-5.71,15.46,15.46,0,0,0-3.33-4.7,15.91,15.91,0,0,0-16.95-3.14,16.43,16.43,0,0,0-4.95,3.18,15,15,0,0,0-3.32,4.66,13.54,13.54,0,0,0-1.23,5.71V35.27A13.5,13.5,0,0,0,255.91,41a15.25,15.25,0,0,0,8.27,7.87,15.8,15.8,0,0,0,6,1.16,15.68,15.68,0,0,0,10.91-4.34A15.29,15.29,0,0,0,284.46,41a13.65,13.65,0,0,0,1.22-5.71Z"/><path class="cls-1" d="M305.63,58.61c-1.45,0-2.17-.77-2.17-2.31l-.14-53.19A2,2,0,0,1,305.63.79h5c1.1,0,1.77.29,2,.87a5.46,5.46,0,0,1,.33,2V49h24a4,4,0,0,1,2.39.43,4,4,0,0,1,.43,2.39v3.9a6,6,0,0,1-.32,2c-.22.6-.88.9-2,.9Z"/><path class="cls-1" d="M356.51,56.3a2.41,2.41,0,0,1-2.39,2.31h-4.91a1.91,1.91,0,0,1-1.59-.72A2.46,2.46,0,0,1,347,56.3L346.9,3.11a2.29,2.29,0,0,1,.65-1.59,2.13,2.13,0,0,1,1.66-.73h4.91a2.26,2.26,0,0,1,1.7.73,2.25,2.25,0,0,1,.69,1.59Z"/><path class="cls-1" d="M414.9,35.27a22.46,22.46,0,0,1-2,9.36,24.45,24.45,0,0,1-5.42,7.62,26.25,26.25,0,0,1-27.61,5.13,26,26,0,0,1-8.06-5.13,24.09,24.09,0,0,1-5.46-7.62,22.46,22.46,0,0,1-2-9.36V23.92a22,22,0,0,1,2-9.36A24.37,24.37,0,0,1,371.87,7a26.44,26.44,0,0,1,27.68-5.09,26.17,26.17,0,0,1,8,5.09A23.37,23.37,0,0,1,413,14.56a22.75,22.75,0,0,1,1.95,9.36Zm-9.75-11.35a13.54,13.54,0,0,0-1.23-5.71,15.46,15.46,0,0,0-3.33-4.7,15.9,15.9,0,0,0-16.94-3.14,16.19,16.19,0,0,0-4.95,3.18,15,15,0,0,0-3.33,4.66,13.54,13.54,0,0,0-1.23,5.71V35.27A13.5,13.5,0,0,0,375.37,41a15.31,15.31,0,0,0,8.28,7.87,15.72,15.72,0,0,0,6,1.16,15.49,15.49,0,0,0,6-1.16A15.41,15.41,0,0,0,403.92,41a13.5,13.5,0,0,0,1.23-5.71Z"/></g></g></svg>