<svg xmlns="http://www.w3.org/2000/svg" viewBox="0 0 50 18"><defs><style>.cls-1{fill:#fff;}</style></defs><title>Asset 63</title><g id="Layer_2" data-name="Layer 2"><g id="레이어_1" data-name="레이어 1"><path class="cls-1" d="M36.06,6.78c-.18.65-.36,1.26-.56,1.89l-.27.86h1.69l-.26-.86c-.21-.63-.38-1.25-.57-1.89Z"/><path class="cls-1" d="M45,0H5A5,5,0,0,0,0,5v8a5,5,0,0,0,5,5H45a5,5,0,0,0,5-5V5A5,5,0,0,0,45,0ZM10.79,11.91C9.39,11.91,8.4,10.78,8.4,9s1-2.89,2.39-2.89,2.4,1.1,2.4,2.89S12.2,11.91,10.79,11.91Zm6.69-.1L16.12,9.43h-1v2.38H14.4V6.2h1.76c1.13,0,1.95.41,1.95,1.58a1.51,1.51,0,0,1-1.27,1.57l1.44,2.46Zm2.49,0h-.71V6.2H20Zm5.46-.56a2.37,2.37,0,0,1-1.73.66c-1.48,0-2.52-1.08-2.52-2.9s1.08-2.92,2.56-2.92a2.16,2.16,0,0,1,1.62.7L25,7.25a1.6,1.6,0,0,0-1.22-.54c-1.12,0-1.86.88-1.86,2.27s.67,2.31,1.87,2.31a1.57,1.57,0,0,0,1-.33V9.49H23.6V8.9h1.83Zm2.05.56h-.71V6.2h.71Zm5.52,0h-.73l-2-3.54-.6-1.16h0c0,.57.08,1.16.08,1.75v3H29V6.2h.73l2,3.53.6,1.16h0c0-.57-.09-1.19-.09-1.78V6.2H33Zm4.64,0-.54-1.72H35.05l-.54,1.72h-.72l1.9-5.61h.79l1.9,5.61Zm4.69,0H39.18V6.2h.71v5h2.44Z"/><path class="cls-1" d="M17.41,7.78c0-.74-.48-1-1.36-1h-.94V8.85h.94C16.93,8.85,17.41,8.5,17.41,7.78Z"/><path class="cls-1" d="M10.79,6.71c-1,0-1.66.87-1.66,2.27s.65,2.31,1.66,2.31,1.67-.91,1.67-2.31S11.79,6.71,10.79,6.71Z"/></g></g></svg>